<svg width="505" height="283" viewBox="0 0 505 283" fill="none" xmlns="http://www.w3.org/2000/svg">
<rect x="231.465" y="226.573" width="2.88184" height="39.7495" rx="1" transform="rotate(9.9672 231.465 226.573)" fill="#233C2E"/>
<rect x="237.475" y="227.471" width="2.88184" height="49.0038" rx="1" transform="rotate(7.74801 237.475 227.471)" fill="#233C2E"/>
<rect x="240.876" y="250.422" width="2.88184" height="25.4778" rx="1" transform="rotate(3.94661 240.876 250.422)" fill="#233C2E"/>
<rect x="248.055" y="251.415" width="2.88184" height="25.4779" rx="1" transform="rotate(1.38108 248.055 251.415)" fill="#233C2E"/>
<rect x="225.881" y="224.7" width="2.88184" height="55.8229" rx="1" transform="rotate(13.8274 225.881 224.7)" fill="#233C2E"/>
<rect x="220.954" y="222.598" width="2.88184" height="50.4875" rx="1" transform="rotate(19.9635 220.954 222.598)" fill="#233C2E"/>
<rect x="215.269" y="220.611" width="2.88184" height="64.7206" rx="1" transform="rotate(26.4447 215.269 220.611)" fill="#233C2E"/>
<rect x="209.475" y="217.496" width="2.88184" height="50.4774" rx="1" transform="rotate(29.9422 209.475 217.496)" fill="#233C2E"/>
<rect x="204.292" y="214.298" width="2.88184" height="74.3942" rx="1" transform="rotate(33.9938 204.292 214.298)" fill="#233C2E"/>
<rect x="198.773" y="211.427" width="2.88184" height="57.9727" rx="1" transform="rotate(36.1274 198.773 211.427)" fill="#233C2E"/>
<rect x="193.967" y="208.232" width="2.88184" height="86.5847" rx="1" transform="rotate(38.0158 193.967 208.232)" fill="#233C2E"/>
<rect x="190.05" y="202.941" width="2.88184" height="76.3081" rx="1" transform="rotate(40.6461 190.05 202.941)" fill="#233C2E"/>
<rect x="181.878" y="195.849" width="2.88184" height="93.5424" rx="1" transform="rotate(49.048 181.878 195.849)" fill="#233C2E"/>
<rect x="174.794" y="186.823" width="2.88184" height="124.424" rx="1" transform="rotate(54.4703 174.794 186.823)" fill="#233C2E"/>
<rect x="169.465" y="175.892" width="2.88184" height="124.424" rx="1" transform="rotate(61.9817 169.465 175.892)" fill="#233C2E"/>
<rect x="164.885" y="163.967" width="2.88184" height="124.424" rx="1" transform="rotate(70.3612 164.885 163.967)" fill="#233C2E"/>
<rect x="161.691" y="152.059" width="2.88184" height="118.96" rx="1" transform="rotate(77.2593 161.691 152.059)" fill="#233C2E"/>
<rect x="160.291" y="140.372" width="2.88184" height="109.638" rx="1" transform="rotate(85.3719 160.291 140.372)" fill="#233C2E"/>
<rect x="159.352" y="127.464" width="2.88184" height="84.462" rx="1" transform="rotate(92.871 159.352 127.464)" fill="#233C2E"/>
<rect x="161.049" y="114.767" width="2.88184" height="72.5852" rx="1" transform="rotate(100.772 161.049 114.767)" fill="#233C2E"/>
<rect x="164.881" y="103.69" width="2.88184" height="62.9696" rx="1" transform="rotate(109.95 164.881 103.69)" fill="#233C2E"/>
<rect x="168.581" y="94.2974" width="2.88184" height="48.5435" rx="1" transform="rotate(119.176 168.581 94.2974)" fill="#233C2E"/>
<rect x="171.168" y="89.5923" width="2.88184" height="70.6261" rx="1" transform="rotate(121.631 171.168 89.5923)" fill="#233C2E"/>
<rect x="174.597" y="85.3335" width="2.88184" height="35.1871" rx="1" transform="rotate(125.104 174.597 85.3335)" fill="#233C2E"/>
<rect x="177.482" y="81.21" width="2.88184" height="59.3577" rx="1" transform="rotate(128.252 177.482 81.21)" fill="#233C2E"/>
<rect x="181.444" y="75.9766" width="2.88184" height="31.2076" rx="1" transform="rotate(130.644 181.444 75.9766)" fill="#233C2E"/>
<rect x="190.694" y="67.0513" width="2.88184" height="31.2076" rx="1" transform="rotate(136.792 190.694 67.0513)" fill="#233C2E"/>
<rect x="199.969" y="59.5449" width="2.88184" height="19.2351" rx="1" transform="rotate(145.339 199.969 59.5449)" fill="#233C2E"/>
<rect x="219.799" y="49.8652" width="2.88184" height="19.2351" rx="1" transform="rotate(159.91 219.799 49.8652)" fill="#233C2E"/>
<rect x="229.434" y="46.4624" width="2.88184" height="19.2351" rx="1" transform="rotate(168.281 229.434 46.4624)" fill="#233C2E"/>
<rect x="241.073" y="43.9702" width="2.88184" height="19.2351" rx="1" transform="rotate(174.298 241.073 43.9702)" fill="#233C2E"/>
<rect x="247.598" y="43.1455" width="2.88184" height="36.272" rx="1" transform="rotate(176.129 247.598 43.1455)" fill="#233C2E"/>
<rect x="255.392" y="43.3223" width="2.88184" height="36.272" rx="1" transform="rotate(-177.107 255.392 43.3223)" fill="#233C2E"/>
<rect x="209.23" y="54.7012" width="2.88184" height="15.7132" rx="1" transform="rotate(151.718 209.23 54.7012)" fill="#233C2E"/>
<rect x="196.184" y="63.1084" width="2.88184" height="47.9267" rx="1" transform="rotate(141.047 196.184 63.1084)" fill="#233C2E"/>
<rect x="204.111" y="56.8657" width="2.88184" height="45.9849" rx="1" transform="rotate(149.877 204.111 56.8657)" fill="#233C2E"/>
<rect x="214.117" y="52.3843" width="2.88184" height="45.9849" rx="1" transform="rotate(154.349 214.117 52.3843)" fill="#233C2E"/>
<rect x="224.459" y="48.0234" width="2.88184" height="45.9849" rx="1" transform="rotate(163.313 224.459 48.0234)" fill="#233C2E"/>
<rect x="235.219" y="45.2852" width="2.88184" height="45.9849" rx="1" transform="rotate(169.992 235.219 45.2852)" fill="#233C2E"/>
<rect x="185.885" y="71.6675" width="2.88184" height="52.3308" rx="1" transform="rotate(132.491 185.885 71.6675)" fill="#233C2E"/>
<rect x="166.462" y="99.6421" width="2.88184" height="79.7844" rx="1" transform="rotate(114.559 166.462 99.6421)" fill="#233C2E"/>
<rect x="162.977" y="108.567" width="2.88184" height="105.015" rx="1" transform="rotate(103.96 162.977 108.567)" fill="#233C2E"/>
<rect x="160.541" y="121.339" width="2.88184" height="111.262" rx="1" transform="rotate(96.448 160.541 121.339)" fill="#233C2E"/>
<rect x="159.909" y="134.68" width="2.88184" height="129.14" rx="1" transform="rotate(88.6227 159.909 134.68)" fill="#233C2E"/>
<rect x="160.579" y="146.271" width="2.88184" height="150.875" rx="1" transform="rotate(82.4311 160.579 146.271)" fill="#233C2E"/>
<rect x="162.304" y="158.004" width="2.88184" height="169.322" rx="1" transform="rotate(73.4452 162.304 158.004)" fill="#233C2E"/>
<rect x="166.587" y="170.923" width="2.88184" height="177.986" rx="1" transform="rotate(66.0109 166.587 170.923)" fill="#233C2E"/>
<rect x="171.842" y="181.736" width="2.88184" height="183.338" rx="1" transform="rotate(57.6947 171.842 181.736)" fill="#233C2E"/>
<rect x="177.99" y="191.936" width="2.88184" height="140.234" rx="1" transform="rotate(50.9117 177.99 191.936)" fill="#233C2E"/>
<rect x="186.105" y="199.891" width="2.88184" height="112.787" rx="1" transform="rotate(45.3966 186.105 199.891)" fill="#233C2E"/>
<rect width="2.88184" height="49.4213" rx="1" transform="matrix(-0.984907 0.173084 0.173084 0.984907 267.971 226.573)" fill="#233C2E"/>
<rect width="2.88184" height="25.4778" rx="1" transform="matrix(-0.997629 0.0688269 0.0688269 0.997629 257.074 251.415)" fill="#233C2E"/>
<rect width="2.88184" height="26.7839" rx="1" transform="matrix(-0.986404 0.164338 0.164338 0.986404 263.729 249.451)" fill="#233C2E"/>
<rect width="2.88184" height="55.8229" rx="1" transform="matrix(-0.97102 0.238997 0.238997 0.97102 274.023 224.7)" fill="#233C2E"/>
<rect width="2.88184" height="50.4875" rx="1" transform="matrix(-0.93991 0.341422 0.341422 0.93991 279.944 222.598)" fill="#233C2E"/>
<rect width="2.88184" height="64.7206" rx="1" transform="matrix(-0.895365 0.445334 0.445334 0.895365 285.629 220.611)" fill="#233C2E"/>
<rect width="2.88184" height="50.4774" rx="1" transform="matrix(-0.86653 0.499126 0.499126 0.86653 291.423 217.496)" fill="#233C2E"/>
<rect width="2.88184" height="74.3942" rx="1" transform="matrix(-0.829098 0.559103 0.559103 0.829098 297.6 214.298)" fill="#233C2E"/>
<rect width="2.88184" height="57.9727" rx="1" transform="matrix(-0.807708 0.589583 0.589583 0.807708 304.112 211.427)" fill="#233C2E"/>
<rect width="2.88184" height="86.5847" rx="1" transform="matrix(-0.787841 0.615878 0.615878 0.787841 308.919 207.238)" fill="#233C2E"/>
<rect width="2.88184" height="76.3081" rx="1" transform="matrix(-0.758748 0.651384 0.651384 0.758748 313.829 202.941)" fill="#233C2E"/>
<rect width="2.88184" height="93.5424" rx="1" transform="matrix(-0.655427 0.755258 0.755258 0.655427 322.995 195.849)" fill="#233C2E"/>
<rect width="2.88184" height="124.424" rx="1" transform="matrix(-0.581125 0.813814 0.813814 0.581125 330.079 186.823)" fill="#233C2E"/>
<rect width="2.88184" height="124.424" rx="1" transform="matrix(-0.469753 0.882798 0.882798 0.469753 335.408 175.892)" fill="#233C2E"/>
<rect width="2.88184" height="124.424" rx="1" transform="matrix(-0.33609 0.94183 0.94183 0.33609 339.988 163.967)" fill="#233C2E"/>
<rect width="2.88184" height="118.96" rx="1" transform="matrix(-0.22054 0.975378 0.975378 0.22054 343.182 152.059)" fill="#233C2E"/>
<rect width="2.88184" height="109.638" rx="1" transform="matrix(-0.0806872 0.996739 0.996739 0.0806872 344.583 140.372)" fill="#233C2E"/>
<rect width="2.88184" height="84.462" rx="1" transform="matrix(0.050088 0.998745 0.998745 -0.050088 345.521 127.464)" fill="#233C2E"/>
<rect width="2.88184" height="72.5853" rx="1" transform="matrix(0.186898 0.982379 0.982379 -0.186898 343.824 114.767)" fill="#233C2E"/>
<rect width="2.88184" height="62.9696" rx="1" transform="matrix(0.341207 0.939988 0.939988 -0.341207 339.992 103.69)" fill="#233C2E"/>
<rect width="2.88184" height="48.5435" rx="1" transform="matrix(0.487499 0.873124 0.873124 -0.487499 336.292 94.2974)" fill="#233C2E"/>
<rect width="2.88184" height="70.6262" rx="1" transform="matrix(0.524453 0.85144 0.85144 -0.524453 333.705 89.5923)" fill="#233C2E"/>
<rect width="2.88184" height="35.1871" rx="1" transform="matrix(0.575058 0.818112 0.818112 -0.575058 330.276 85.3335)" fill="#233C2E"/>
<rect width="2.88184" height="59.3577" rx="1" transform="matrix(0.619115 0.7853 0.7853 -0.619115 327.391 81.21)" fill="#233C2E"/>
<rect width="2.88184" height="31.2076" rx="1" transform="matrix(0.651352 0.758776 0.758776 -0.651352 323.429 75.9766)" fill="#233C2E"/>
<rect width="2.88184" height="31.2076" rx="1" transform="matrix(0.728872 0.68465 0.68465 -0.728872 314.179 67.0513)" fill="#233C2E"/>
<rect width="2.88184" height="19.2351" rx="1" transform="matrix(0.822534 0.568716 0.568716 -0.822534 304.904 59.5449)" fill="#233C2E"/>
<rect width="2.88184" height="19.2351" rx="1" transform="matrix(0.939153 0.343499 0.343499 -0.939153 285.074 49.8652)" fill="#233C2E"/>
<rect width="2.88184" height="19.2351" rx="1" transform="matrix(0.979155 0.203115 0.203115 -0.979155 275.439 46.4624)" fill="#233C2E"/>
<rect width="2.88184" height="19.2351" rx="1" transform="matrix(0.991888 0.127112 0.127112 -0.991888 261.09 43.9165)" fill="#233C2E"/>
<rect width="2.88184" height="15.7132" rx="1" transform="matrix(0.880625 0.473814 0.473814 -0.880625 295.643 54.7012)" fill="#233C2E"/>
<rect width="2.88184" height="47.9267" rx="1" transform="matrix(0.777667 0.628677 0.628677 -0.777667 308.689 63.1084)" fill="#233C2E"/>
<rect width="2.88184" height="45.9849" rx="1" transform="matrix(0.864946 0.501864 0.501864 -0.864946 300.763 56.8657)" fill="#233C2E"/>
<rect width="2.88184" height="45.9849" rx="1" transform="matrix(0.901447 0.432889 0.432889 -0.901447 290.757 52.3843)" fill="#233C2E"/>
<rect width="2.88184" height="45.9849" rx="1" transform="matrix(0.957889 0.28714 0.28714 -0.957889 280.414 48.0234)" fill="#233C2E"/>
<rect width="2.88184" height="45.9849" rx="1" transform="matrix(0.984783 0.173791 0.173791 -0.984783 269.654 45.2852)" fill="#233C2E"/>
<rect width="2.88184" height="52.3308" rx="1" transform="matrix(0.675475 0.737383 0.737383 -0.675475 318.988 71.6675)" fill="#233C2E"/>
<rect width="2.88184" height="79.7844" rx="1" transform="matrix(0.415626 0.909535 0.909535 -0.415626 338.411 99.6421)" fill="#233C2E"/>
<rect width="2.88184" height="105.015" rx="1" transform="matrix(0.241245 0.970464 0.970464 -0.241245 341.896 108.567)" fill="#233C2E"/>
<rect width="2.88184" height="111.262" rx="1" transform="matrix(0.112302 0.993674 0.993674 -0.112302 344.332 121.339)" fill="#233C2E"/>
<rect width="2.88184" height="129.14" rx="1" transform="matrix(-0.0240356 0.999711 0.999711 0.0240356 344.964 134.68)" fill="#233C2E"/>
<rect width="2.88184" height="150.875" rx="1" transform="matrix(-0.131718 0.991287 0.991287 0.131718 344.294 146.271)" fill="#233C2E"/>
<rect width="2.88184" height="169.322" rx="1" transform="matrix(-0.284933 0.958547 0.958547 0.284933 342.57 158.004)" fill="#233C2E"/>
<rect width="2.88184" height="177.986" rx="1" transform="matrix(-0.406564 0.913622 0.913622 0.406564 338.286 170.923)" fill="#233C2E"/>
<rect width="2.88184" height="183.338" rx="1" transform="matrix(-0.53443 0.845212 0.845212 0.53443 333.031 181.736)" fill="#233C2E"/>
<rect width="2.88184" height="140.234" rx="1" transform="matrix(-0.630517 0.776176 0.776176 0.630517 326.883 191.936)" fill="#233C2E"/>
<rect width="2.88184" height="112.787" rx="1" transform="matrix(-0.702195 0.711985 0.711985 0.702195 318.768 199.891)" fill="#233C2E"/>
<rect x="234.5" y="74.354" width="37.7621" height="8.94365" fill="#233C2E"/>
<rect x="235.27" y="167.766" width="44.6483" height="8.94365" transform="rotate(24.7924 235.27 167.766)" fill="#233C2E"/>
<rect x="193.757" y="97.21" width="119.249" height="9.93739" fill="#233C2E"/>
<rect x="259.344" y="61.4351" width="176.885" height="11.9249" transform="rotate(90 259.344 61.4351)" fill="#233C2E"/>
</svg>
