<svg width="22" height="21" viewBox="0 0 22 21" fill="none" xmlns="http://www.w3.org/2000/svg">
<path d="M7.64675 10.6918C7.64675 8.8348 9.15179 7.32901 11.0089 7.32901C12.8659 7.32901 14.3718 8.8348 14.3718 10.6918C14.3718 12.5488 12.8659 14.0546 11.0089 14.0546C9.15179 14.0546 7.64675 12.5488 7.64675 10.6918ZM5.82882 10.6918C5.82882 13.5526 8.14792 15.8716 11.0089 15.8716C13.8698 15.8716 16.1889 13.5526 16.1889 10.6918C16.1889 7.83097 13.8698 5.51195 11.0089 5.51195C8.14792 5.51195 5.82882 7.83097 5.82882 10.6918ZM15.1834 5.30657C15.1833 5.54599 15.2542 5.78006 15.3872 5.97918C15.5201 6.1783 15.7091 6.33353 15.9303 6.42523C16.1514 6.51694 16.3948 6.54101 16.6297 6.4944C16.8645 6.44779 17.0803 6.33258 17.2496 6.16336C17.419 5.99413 17.5344 5.77849 17.5812 5.54369C17.628 5.30889 17.6041 5.06549 17.5126 4.84426C17.421 4.62303 17.266 4.43392 17.0669 4.30082C16.8679 4.16773 16.6339 4.09664 16.3945 4.09655H16.394C16.0731 4.0967 15.7653 4.22421 15.5383 4.45109C15.3114 4.67797 15.1837 4.98566 15.1834 5.30657ZM6.93333 18.9028C5.94979 18.858 5.41521 18.6942 5.05995 18.5558C4.58896 18.3725 4.25291 18.1541 3.89959 17.8013C3.54627 17.4485 3.32757 17.1127 3.14501 16.6418C3.00653 16.2867 2.8427 15.752 2.79799 14.7685C2.74908 13.7052 2.73932 13.3857 2.73932 10.6919C2.73932 7.99802 2.74989 7.67949 2.79799 6.61529C2.84278 5.6318 3.00782 5.09812 3.14501 4.74199C3.32837 4.27102 3.54676 3.93499 3.89959 3.58168C4.25243 3.22837 4.58816 3.00967 5.05995 2.82713C5.41505 2.68865 5.94979 2.52482 6.93333 2.48012C7.99668 2.43121 8.31611 2.42145 11.0089 2.42145C13.7016 2.42145 14.0214 2.43202 15.0856 2.48012C16.0692 2.52491 16.6028 2.68994 16.959 2.82713C17.43 3.00967 17.766 3.22886 18.1194 3.58168C18.4727 3.9345 18.6906 4.27102 18.8739 4.74199C19.0124 5.09707 19.1762 5.6318 19.221 6.61529C19.2699 7.67949 19.2796 7.99802 19.2796 10.6919C19.2796 13.3857 19.2699 13.7043 19.221 14.7685C19.1762 15.752 19.0115 16.2865 18.8739 16.6418C18.6906 17.1127 18.4722 17.4488 18.1194 17.8013C17.7665 18.1538 17.43 18.3725 16.959 18.5558C16.6039 18.6943 16.0692 18.8581 15.0856 18.9028C14.0223 18.9517 13.7028 18.9615 11.0089 18.9615C8.3149 18.9615 7.99636 18.9517 6.93333 18.9028ZM6.8498 0.665323C5.77587 0.714228 5.04204 0.884506 4.40117 1.13387C3.73746 1.39139 3.1756 1.73686 2.61414 2.29741C2.05269 2.85796 1.70808 3.42068 1.45056 4.08436C1.20118 4.72561 1.0309 5.45902 0.981991 6.5329C0.932278 7.60847 0.920898 7.95234 0.920898 10.6918C0.920898 13.4313 0.932278 13.7751 0.981991 14.8507C1.0309 15.9247 1.20118 16.658 1.45056 17.2992C1.70808 17.9625 2.05277 18.5259 2.61414 19.0862C3.17552 19.6465 3.73746 19.9915 4.40117 20.2497C5.04325 20.4991 5.77587 20.6694 6.8498 20.7183C7.92598 20.7672 8.2693 20.7794 11.0089 20.7794C13.7484 20.7794 14.0923 20.768 15.1679 20.7183C16.2419 20.6694 16.9753 20.4991 17.6166 20.2497C18.2799 19.9915 18.8421 19.6467 19.4036 19.0862C19.965 18.5256 20.3089 17.9625 20.5672 17.2992C20.8166 16.658 20.9876 15.9246 21.0357 14.8507C21.0847 13.7743 21.096 13.4313 21.096 10.6918C21.096 7.95234 21.0847 7.60847 21.0357 6.5329C20.9868 5.45893 20.8166 4.72521 20.5672 4.08436C20.3089 3.42108 19.9642 2.85884 19.4036 2.29741C18.843 1.73598 18.2799 1.39139 17.6174 1.13387C16.9753 0.884506 16.2419 0.713421 15.1687 0.665323C14.0931 0.616419 13.7492 0.604233 11.0097 0.604233C8.2701 0.604233 7.92598 0.615612 6.8498 0.665323Z" fill="#2E2E39"/>
</svg>
