<svg width="20" height="17" viewBox="0 0 20 17" fill="none" xmlns="http://www.w3.org/2000/svg">
<path d="M19.5338 2.70358C18.8252 3.01862 18.0702 3.22744 17.283 3.32884C18.0928 2.83877 18.7109 2.06867 19.0015 1.14044C18.2464 1.59671 17.4128 1.91899 16.5244 2.09884C15.8075 1.32512 14.7857 0.845917 13.671 0.845917C11.5084 0.845917 9.76727 2.62512 9.76727 4.80628C9.76727 5.12011 9.79347 5.42188 9.85778 5.70916C6.61021 5.54862 3.73659 3.97099 1.80615 1.56774C1.46912 2.1604 1.27144 2.83877 1.27144 3.56904C1.27144 4.94026 1.96811 6.15577 3.00657 6.85949C2.37897 6.84741 1.76328 6.66273 1.24166 6.37183C1.24166 6.3839 1.24166 6.3996 1.24166 6.41529C1.24166 8.33934 2.59571 9.93749 4.37133 10.3056C4.05336 10.3938 3.70681 10.436 3.34716 10.436C3.09708 10.436 2.84461 10.4215 2.60762 10.3684C3.11375 11.9364 4.54997 13.0891 6.25771 13.1265C4.92867 14.1803 3.24117 14.8152 1.41434 14.8152C1.09399 14.8152 0.786743 14.8007 0.479492 14.7609C2.20986 15.8919 4.26058 16.5377 6.47207 16.5377C13.6603 16.5377 17.5902 10.5024 17.5902 5.271C17.5902 5.09597 17.5843 4.92698 17.576 4.7592C18.3512 4.20154 19.0026 3.50507 19.5338 2.70358Z" fill="#2E2E39"/>
</svg>
