<svg width="200" height="263" viewBox="0 0 200 263" fill="none" xmlns="http://www.w3.org/2000/svg">
<path d="M99.5485 23.9884C100.48 25.7489 101.301 27.1243 102.013 28.5547C104.04 32.5157 106.34 36.3117 110.393 38.4573C113.406 40.0527 116.582 41.4831 119.814 42.5284C124.963 44.2339 130.275 45.4992 135.479 47.0946C141.887 49.0752 146.707 53.0362 148.733 59.473C149.555 62.1137 150.76 62.2787 152.896 62.3887C160.29 62.7188 167.192 64.8094 173.381 68.8805C179.296 72.7865 183.897 77.8479 185.923 84.8898C186.362 86.4852 186.909 88.0807 187.348 89.7311C187.567 90.6663 188.005 91.1615 189.045 91.0514C189.429 90.9964 189.812 91.1065 190.196 91.1615C193.811 91.9317 194.358 92.7019 194.523 96.3879C194.687 99.4137 193.975 102.054 191.346 103.76C190.47 104.31 189.319 104.805 188.333 104.75C187.074 104.695 186.526 105.19 185.978 106.126C183.842 109.591 181.761 113.057 179.406 116.413C176.612 120.429 172.669 123.125 168.561 125.656C168.013 125.986 167.411 126.316 166.863 126.701C165.603 127.471 165.603 128.682 166.644 129.727C169.382 132.478 172.231 135.118 174.641 138.089C178.201 142.49 181.377 147.112 184.719 151.678C184.992 152.063 185.266 152.503 185.431 152.888C186.033 154.208 185.923 155.584 185.102 156.024C184.061 156.574 182.254 156.024 181.597 154.924C180.118 152.503 178.694 150.082 177.105 147.717C174.421 143.811 171.683 139.96 168.944 136.109C168.616 135.613 168.068 135.283 167.63 134.898C167.465 134.953 167.356 135.008 167.192 135.063C167.192 135.778 167.137 136.549 167.192 137.264C168.013 143.591 168.944 149.862 169.711 156.189C170.478 162.461 171.573 168.732 170.806 175.059C170.587 177.095 169.766 179.075 169.109 181.056C168.725 182.156 167.794 182.486 166.699 182.431C165.987 182.376 165.275 182.376 164.563 182.321C163.631 182.266 162.919 182.651 162.536 183.531C160.674 187.877 157.168 189.803 152.677 190.188C152.513 190.188 152.348 190.298 152.02 190.463C152.403 190.738 152.677 190.903 152.896 191.068C155.087 192.334 155.361 194.314 155.087 196.515C154.923 197.615 155.197 198.11 156.347 198.495C158.921 199.321 160.071 201.576 159.633 204.602C159.25 207.353 157.114 209.663 154.704 209.773C153.608 209.828 152.513 209.773 151.417 209.553C150.322 209.278 150.048 209.608 149.829 210.654C149.226 213.569 147.474 215.66 144.79 216.815C142.49 217.806 140.134 217.09 138.327 215.055C137.998 214.725 137.67 214.34 137.396 213.954C136.793 213.019 136.191 213.019 135.314 213.679C132.028 216.1 128.413 216.045 125.894 213.624C123.374 211.204 123.319 207.848 125.894 205.427C126.168 205.152 126.496 204.877 126.88 204.547C123.922 202.236 122.662 199.376 123.758 195.91C124.963 192.004 128.304 192.499 131.426 192.774C131.645 191.288 131.426 190.243 130.275 189.253C129.344 188.428 128.851 187.107 128.194 185.952C127.865 185.402 127.701 184.742 127.482 184.191C127.318 184.191 127.208 184.191 127.044 184.191C126.825 184.687 126.387 185.237 126.332 185.732C126.003 188.813 124.196 190.518 121.402 191.453C121.019 191.563 120.636 191.784 120.307 191.894C121.074 193.214 122.005 194.369 122.498 195.745C123.648 198.715 122.826 201.576 121.019 203.997C119.102 206.583 116.309 206.913 113.406 206.307C111.872 205.977 110.448 205.427 108.86 204.932C108.86 205.702 108.914 206.307 108.86 206.913C108.586 210.434 105.738 213.679 102.232 214.285C99.5485 214.78 96.7003 213.019 95.2215 209.883C94.8381 209.003 94.3999 208.178 94.0165 207.298C93.195 207.738 92.3734 208.233 91.5518 208.563C87.9916 209.993 84.5958 209.773 81.5286 207.408C78.8995 205.317 78.8448 201.631 81.3095 198.715C81.9667 197.945 82.5692 197.175 83.4456 196.13C82.4049 195.91 81.6929 195.745 80.9809 195.635C78.79 195.359 76.8182 194.534 75.1751 193.104C73.258 191.453 72.8746 189.253 73.0937 186.832C73.1485 186.392 72.7651 185.897 72.6008 185.457C72.2722 185.842 71.7792 186.172 71.6149 186.612C70.7933 189.143 70.0265 191.729 69.2049 194.259C68.8763 195.304 69.0406 195.69 70.1908 195.58C71.0672 195.47 71.9983 195.525 72.9294 195.58C75.3394 195.745 77.1468 197.23 77.8041 199.541C78.7352 202.676 77.8589 204.822 74.7369 206.197C72.9842 206.968 71.0124 207.188 68.9311 207.683C69.0406 208.068 69.2049 208.728 69.3693 209.388C70.4647 213.789 67.3975 216.925 63.0157 215.99C60.7153 215.495 59.1269 214.065 57.5933 212.469C56.7718 211.589 56.3336 211.534 55.4572 212.524C53.4307 214.89 50.8564 216.375 47.7892 216.925C44.229 217.585 42.2025 215.66 42.805 212.084C43.1336 210.103 43.9552 208.343 45.3792 206.913C45.8174 206.472 46.146 205.977 46.7485 205.317C46.0913 205.152 45.7079 205.042 45.3245 204.932C44.0647 204.547 42.7502 204.272 41.4904 203.777C38.5875 202.566 38.0398 199.431 40.5593 197.505C44.0647 194.809 48.0631 194.094 52.3352 195.69C52.8282 195.855 53.3211 196.13 53.8141 196.185C54.307 196.24 55.1286 196.075 55.1834 195.855C55.2929 195.304 55.1286 194.699 54.9095 194.149C54.7452 193.764 54.3618 193.489 53.9784 193.269C52.1709 191.949 52.1162 190.793 52.9925 188.758C53.1568 188.373 53.3211 187.988 53.5402 187.382C52.883 187.327 52.4448 187.162 51.9518 187.217C51.4041 187.217 50.8016 187.382 50.2539 187.492C49.3228 187.657 48.1178 187.547 47.5153 188.098C47.0224 188.538 47.1867 189.748 47.0224 190.628C46.6938 192.334 45.7079 193.434 44.0647 193.984C42.0382 194.699 40.1212 194.314 38.5875 192.884C37.4373 191.784 36.3967 190.463 35.5751 189.088C34.5344 187.382 33.2747 186.392 31.1934 186.062C27.4141 185.402 23.6349 184.412 19.9104 183.531C18.9245 183.311 17.9386 182.816 17.0075 182.376C14.9262 181.276 14.488 180.34 14.9809 178.03C16.6241 170.218 19.527 162.846 22.649 155.529C24.566 151.018 26.3187 146.506 28.1262 141.94C28.2905 141.5 28.3452 141.06 28.5643 140.18C27.688 140.675 27.0855 140.895 26.6473 141.28C22.156 144.966 17.6647 148.707 13.1735 152.393C12.1876 153.218 11.2017 154.098 10.1063 154.704C9.17513 155.199 8.0797 155.419 6.98426 155.639C6.54609 155.694 5.99837 155.309 5.50543 155.144C5.77928 154.594 5.99837 153.878 6.43654 153.548C8.18924 152.063 10.0515 150.742 11.8042 149.257C15.5287 146.121 19.2531 142.985 22.9776 139.85C25.3328 137.924 27.688 135.999 30.1527 134.128C31.4125 133.138 32.3436 132.037 32.7817 130.497C32.8913 130.057 33.1104 129.617 33.2199 129.122C33.9867 126.151 33.9867 126.206 31.3029 124.665C24.566 120.869 19.2531 115.588 16.1859 108.381C15.4191 106.511 15.0357 104.475 14.6523 102.44C14.3237 100.679 14.1046 100.404 12.3519 100.239C8.13447 99.9088 5.45065 96.938 4.68385 92.5919C3.97182 88.7408 4.73862 85.0548 7.58675 82.084C9.12036 80.4886 10.9826 79.4984 13.1735 79.1133C14.4332 78.8932 15.7477 78.6731 17.0075 78.6181C18.322 78.5631 18.4863 78.068 17.9386 77.0227C17.2813 75.8124 16.6789 74.547 16.0216 73.3367C13.8855 69.4857 14.3237 66.0747 17.5552 63.1039C21.0606 59.9681 25.0042 57.6025 29.8241 57.1073C31.1934 56.9423 32.6722 57.1073 34.0415 57.3824C35.7394 57.7125 36.9444 59.528 37.1087 61.4535C37.2183 62.3337 37.273 63.269 37.3278 64.1492C37.4921 65.7997 37.8755 66.0197 39.4639 65.6346C41.6548 65.0845 43.9004 64.5343 46.0913 63.9292C46.639 63.7641 47.351 63.159 47.4058 62.7188C48.7751 54.0265 54.8547 49.4603 62.1942 46.3794C68.9858 43.5187 76.0514 41.2631 82.9526 38.6774C84.8696 37.9622 86.8414 37.357 88.7037 36.5318C92.9759 34.7713 94.8929 31.1954 95.7145 26.9042C95.824 26.3541 95.9335 25.7489 96.0978 25.1988C96.4813 23.7684 96.9742 22.393 95.0024 21.6228C94.6738 21.5128 94.3999 20.9626 94.2356 20.5775C94.0713 20.0274 93.7974 19.3672 93.9618 18.9271C94.0713 18.652 95.0024 18.4319 95.4406 18.542C96.6456 18.817 97.029 18.2119 97.0837 17.2216C97.0837 17.0566 97.0837 16.9465 97.0837 16.7815C97.1933 14.3058 97.1933 14.3608 94.7286 14.2508C92.9759 14.1408 91.2232 13.9207 89.4705 13.5906C88.868 13.4806 88.2107 13.1505 87.7178 12.7104C86.8414 11.8302 87.0605 10.7849 88.3203 10.6198C89.9634 10.4548 91.6066 10.6198 93.2497 10.6749C93.6879 10.6749 94.1261 10.7849 94.5095 10.8399C96.7551 11.115 97.3576 10.5648 96.8646 8.36423C96.7551 7.8691 96.0979 7.42898 95.6049 7.15391C94.9476 6.82382 94.1261 6.7688 93.5236 6.32869C93.1402 6.05361 92.9759 5.33842 92.9759 4.84328C92.9759 4.62323 93.6331 4.34815 94.0713 4.18311C94.3452 4.07308 94.7286 4.01806 95.0572 4.01806C96.6456 4.07308 97.3028 3.30287 97.2481 1.76246C97.2481 1.04727 97.1385 -0.0530287 98.1792 0.00198612C98.7817 0.0570009 99.8771 0.827205 99.8771 1.32234C100.096 3.63296 101.356 4.18311 103.382 4.12809C104.314 4.07308 104.861 4.84328 104.642 5.66851C104.478 6.21865 103.821 6.65877 103.273 6.98886C102.944 7.15391 102.451 7.04388 102.013 7.04388C100.48 7.04388 99.9319 7.59402 99.8771 9.18945C99.8223 10.2347 100.206 10.7299 101.301 10.6749C103.273 10.5648 105.19 10.5098 107.162 10.4548C109.134 10.3998 109.955 10.9499 109.955 12.1603C109.955 13.2055 108.75 14.0858 107.162 14.0858C105.3 14.0858 103.437 14.0858 101.575 14.0308C100.644 14.0308 100.26 14.3608 100.206 15.4061C100.206 16.6715 99.9319 17.9918 99.8223 19.2572C99.7128 20.5225 100.26 21.2377 101.52 21.4578C102.178 21.5678 102.944 21.6228 103.382 22.0079C103.821 22.393 104.149 23.1632 104.204 23.7684C104.204 23.9884 103.328 24.5386 102.835 24.5386C102.013 24.4285 100.973 24.1535 99.5485 23.9884ZM93.5236 79.7734C95.112 80.2135 96.4265 80.5986 97.741 80.9837C100.589 81.864 101.958 83.5144 102.123 86.3202C102.287 89.7861 101.958 93.2521 100.808 96.4979C100.425 97.5432 99.6032 98.6985 98.6721 99.1936C97.029 100.129 95.1667 100.734 93.3593 101.229C92.2091 101.504 91.6066 101.999 91.3875 103.1C90.7302 107.116 89.1418 110.802 87.3344 114.433C84.4315 120.264 80.707 125.271 74.463 127.856C72.9294 128.517 72.9294 129.067 74.3535 130.167C78.1327 133.138 81.8572 136.054 85.6912 138.969C88.9228 141.445 92.2091 143.921 95.5501 146.396C95.9335 146.671 96.4813 146.726 96.9742 146.891C97.0837 146.396 97.3028 145.901 97.3028 145.406C97.4124 142.325 97.3576 139.244 97.5219 136.219C97.6862 133.193 97.7958 133.193 94.7833 132.643C91.7161 132.092 90.0182 129.397 91.2779 126.866C91.8804 125.656 91.6066 124.996 90.785 124.115C90.073 123.345 89.3609 122.355 89.1419 121.365C88.7037 119.219 89.9634 117.459 92.2638 116.963C93.4688 116.688 94.1261 116.358 93.7974 114.873C93.6331 114.158 93.9617 113.222 94.3999 112.562C96.0431 109.922 100.315 109.206 103.273 110.802C104.04 111.242 105.19 111.407 106.066 111.187C109.626 110.307 111.982 112.067 112.036 115.753C112.036 116.303 112.365 117.073 112.803 117.349C115.158 119.109 115.487 122.3 113.241 124.28C112.475 124.996 112.31 125.601 112.584 126.646C113.46 129.562 111.434 132.148 108.421 132.258C107.929 132.258 107.217 132.533 107.052 132.863C105.683 135.173 103.821 136.274 101.082 135.833C100.699 135.778 99.9319 136.329 99.9319 136.604C99.8771 139.96 99.8223 143.315 100.096 146.616C100.261 148.762 100.644 148.707 102.506 147.442C109.462 142.71 116.309 137.869 123.429 133.413C125.948 131.872 127.865 130.497 128.085 127.361C128.139 126.261 128.139 125.546 127.044 124.886C122.772 122.245 119.157 118.834 116.528 114.488C114.665 111.297 112.858 108.106 111.27 104.805C110.448 103.155 109.353 102.44 107.545 102.164C106.45 101.999 105.135 101.284 104.478 100.404C102.835 98.3134 102.397 95.7827 103.109 93.197C103.711 90.9414 105.464 89.511 107.709 89.6211C109.243 89.6761 109.681 89.0709 109.846 87.6955C110.831 80.0485 114.83 74.1069 120.909 69.5957C127.373 64.8094 134.767 62.4438 142.709 61.6736C144.407 61.5085 144.626 61.2334 144.133 59.528C143.311 56.6672 141.558 54.5216 139.203 52.8162C135.095 49.7904 130.166 48.8551 125.401 47.5348C120.197 46.1044 114.885 45.1691 110.174 42.3083C105.957 39.7777 102.123 36.8619 100.041 32.1306C99.8223 31.5805 99.1651 31.2504 98.7269 30.8103C98.3983 31.3054 97.9053 31.7455 97.7958 32.2957C97.3028 34.2762 96.2622 35.9817 94.5642 37.0269C92.3734 38.2923 90.1277 39.5026 87.7726 40.3278C81.3095 42.6935 74.7369 44.729 68.3286 47.1497C63.2348 49.0752 58.6888 51.9359 55.0191 56.062C53.2664 57.9876 51.9518 60.1882 51.8971 63.214C56.8265 62.7738 61.5917 63.214 66.1925 64.4793C70.7933 65.7447 75.2846 67.4501 79.8854 68.9905C79.9402 68.6604 80.0497 68.2203 80.1045 67.8352C80.4879 64.4793 82.0763 62.7738 85.3626 62.3887C90.073 61.8386 93.9617 63.7091 97.1385 67.065C98.3983 68.4404 99.2198 70.2009 97.9601 72.1814C97.741 72.5665 97.6315 73.0616 97.5219 73.5568C97.3028 75.3722 96.2622 76.7476 95.0024 77.9579C94.4547 78.5631 94.0713 79.1133 93.5236 79.7734ZM184.171 95.4526C184.335 85.2749 180.227 77.9579 173.381 72.0163C172.559 71.3011 171.902 71.0811 171.135 72.2364C170.478 73.1717 169.711 72.8416 169.163 72.0714C168.889 71.6312 168.835 71.0811 168.561 70.641C168.177 70.0358 167.684 69.5407 167.246 68.9905C166.918 69.4857 166.644 70.0358 166.26 70.4759C165.822 71.0261 165.384 71.5212 164.891 72.0714C164.343 71.5212 163.631 71.0261 163.248 70.3659C162.974 69.8157 163.084 69.0455 162.974 68.3854C162.755 67.23 161.879 66.7349 160.455 66.8449C159.359 66.955 159.688 67.8352 159.524 68.4954C159.25 69.7057 159.031 70.916 158.592 72.0714C158.483 72.4014 157.826 72.5665 157.387 72.8416C157.168 72.4565 156.785 72.1264 156.73 71.7413C156.566 70.586 156.621 69.4306 156.402 68.3303C156.237 67.5601 155.909 66.7349 155.361 66.1848C155.032 65.7997 154.156 65.6346 153.718 65.7997C153.389 65.9097 153.334 66.7899 153.28 67.3401C153.17 68.2753 153.225 69.2656 152.951 70.1458C152.841 70.586 152.02 71.1361 151.746 71.0811C151.308 70.916 150.87 70.3109 150.705 69.7607C150.486 68.9355 150.541 68.0553 150.431 67.175C150.322 65.9647 149.5 65.7997 148.514 65.8547C147.419 65.9097 147.583 66.6799 147.583 67.3951C147.583 67.9452 147.583 68.4404 147.529 68.9905C147.474 70.0908 147.145 71.0811 145.831 71.0261C144.571 70.916 144.516 69.8157 144.461 68.8255C144.407 68.0003 144.461 67.175 144.297 66.4048C144.078 65.2495 143.256 65.0295 141.504 65.3596C140.353 65.5796 140.134 66.1848 140.408 67.175C140.572 67.8902 140.846 68.6604 140.846 69.3756C140.846 69.8157 140.463 70.2009 140.299 70.641C139.806 70.3109 139.148 70.1458 138.875 69.7057C138.546 69.1005 138.491 68.3303 138.327 67.6152C138.163 66.7349 137.889 66.0197 136.793 66.1848C135.807 66.2948 135.205 66.7349 135.205 67.8352C135.205 68.7705 135.26 69.6507 135.205 70.586C135.15 71.0261 134.767 71.4662 134.548 71.9063C134.164 71.6312 133.562 71.4662 133.343 71.0811C133.014 70.4209 132.85 69.6507 132.685 68.9355C132.357 67.6152 131.59 67.175 130.44 68.0003C130.056 68.2753 129.837 68.8255 129.782 69.3206C129.399 71.1911 129.18 71.3011 127.646 70.2559C127.318 70.0358 126.715 69.9258 126.387 70.0358C120.143 72.8966 115.597 77.4628 113.406 84.0096C110.831 91.6566 111.543 99.2487 114.611 106.621C117.24 112.947 121.074 118.339 126.88 122.135C131.699 125.326 137.012 126.921 142.873 127.361C151.198 127.911 159.14 127.196 166.644 123.345C171.628 120.814 175.845 117.294 178.913 112.617C182.582 107.061 184.28 101.064 184.171 95.4526ZM48.556 184.301C55.512 183.806 61.044 183.586 66.6307 182.981C70.3004 182.596 73.9701 181.716 77.585 180.946C79.7211 180.45 80.5975 179.405 80.3784 177.26C79.9402 172.803 79.6116 168.292 78.6805 163.891C77.2016 156.684 75.3941 149.532 73.4771 142.435C72.4912 138.749 71.1219 135.173 69.917 131.542C69.4788 130.222 68.7668 129.672 67.2332 130.002C64.3303 130.552 61.4274 131.102 58.4697 131.212C51.9518 131.487 45.3792 131.817 39.2448 128.737C38.4232 128.296 37.7112 128.462 37.273 129.452C36.3419 131.487 35.2465 133.468 34.3701 135.558C30.8647 143.976 27.2498 152.393 23.9635 160.865C22.1013 165.707 20.732 170.768 19.3079 175.774C18.5411 178.47 19.1436 179.735 21.7726 180.726C23.9087 181.496 26.1544 182.266 28.4 182.541C35.5203 183.256 42.6954 183.806 48.556 184.301ZM17.3361 99.0286C17.2266 99.0286 17.117 99.0836 17.0075 99.0836C17.5004 101.504 17.61 104.035 18.4863 106.346C20.3486 111.242 23.6896 115.203 27.6332 118.449C30.2622 120.649 33.4938 122.19 36.5062 123.895C42.312 127.196 48.7203 128.241 55.2382 128.241C59.346 128.241 63.5087 127.581 67.6166 126.921C71.9983 126.206 75.9966 124.39 78.79 120.814C80.8713 118.174 82.5145 115.148 84.2672 112.287C88.375 105.575 89.3609 98.3684 87.8821 90.7214C87.4987 88.6858 87.3892 88.6858 85.2531 88.5758C78.7352 88.2457 72.3269 87.4755 66.6307 83.8445C62.5228 81.2038 58.3601 78.6731 55.4572 74.602C54.5261 73.2817 53.7045 73.3917 52.9377 74.9321C51.8423 77.1877 50.2539 79.0032 48.063 80.2135C45.927 81.4239 43.7361 82.5792 41.4904 83.7345C39.8473 84.5597 39.7925 85.1649 41.3261 86.2102C42.0382 86.7053 42.805 87.0904 43.4622 87.5855C44.1195 88.0807 44.9958 88.6858 44.229 89.6761C43.517 90.5563 42.6407 90.8314 41.6548 90.0062C40.0664 88.6858 38.2041 88.0807 36.1776 87.8606C34.8631 87.7506 33.5485 87.1454 32.234 86.8153C31.8506 86.7053 31.4125 86.5953 30.9743 86.5953C27.7427 86.9804 24.5112 87.3104 21.3344 87.8606C20.6772 87.9706 19.9104 88.6308 19.527 89.236C17.6648 92.3168 17.2266 95.6177 17.3361 99.0286ZM95.1667 184.522C95.1667 182.431 95.0024 180.726 95.1667 179.075C95.8788 172.253 101.356 169.393 107.217 170.548C108.586 170.823 109.846 171.483 110.174 172.913C110.558 174.344 110.722 175.884 110.831 177.37C110.886 178.415 111.16 178.855 112.31 178.58C113.734 178.25 115.213 178.085 116.692 177.92C119.376 177.59 119.54 178.305 119.54 175.004C119.54 174.674 119.595 174.344 119.65 174.014C120.636 168.347 121.676 162.736 122.607 157.069C123.538 151.348 124.36 145.626 125.236 139.905C125.401 138.859 125.565 137.759 125.784 136.549C125.291 136.714 125.017 136.769 124.798 136.879C122.717 137.979 120.636 139.024 118.609 140.18C113.132 143.426 107.819 146.836 102.999 151.018C101.575 152.228 101.301 153.603 101.411 155.364C101.575 157.839 101.575 160.37 101.411 162.846C101.356 163.891 100.753 164.936 100.151 165.817C99.8223 166.257 98.8364 166.422 98.2339 166.312C97.9053 166.257 97.5219 165.321 97.5219 164.826C97.4671 163.726 97.6862 162.626 97.741 161.525C97.8505 159.215 98.0149 156.849 98.0149 154.539C98.0149 153.108 97.3028 152.063 96.0431 151.293C94.2356 150.247 92.4829 149.092 90.785 147.827C87.1153 145.021 83.5004 142.105 79.8854 139.244C78.6257 138.254 77.3111 137.429 75.9966 136.494C75.8871 136.604 75.7775 136.659 75.668 136.769C75.7228 137.209 75.7775 137.704 75.8323 138.144C76.9825 143.15 78.1327 148.102 79.2282 153.108C81.0356 161.36 82.8431 169.558 84.5958 177.81C84.8149 178.855 85.3626 179.24 86.3485 179.35C89.4157 179.68 91.8257 181.221 93.7974 183.476C94.1808 183.641 94.5642 183.971 95.1667 184.522ZM149.665 159.655C150.815 159.655 151.965 159.82 153.115 159.655C156.949 159.05 160.783 158.445 164.617 157.674C165.932 157.399 166.644 156.519 166.315 155.034C166.151 154.153 165.987 153.273 165.877 152.338C165.11 145.626 164.398 138.914 163.631 132.258C163.193 128.186 162.755 127.911 158.811 128.682C150.596 130.277 142.38 130.167 134.219 128.296C131.864 127.746 131.426 127.856 130.987 130.222C129.454 138.144 127.92 146.121 126.441 154.043C126.058 155.969 126.66 156.739 128.523 157.289C135.479 159.215 142.544 159.82 149.665 159.655ZM167.411 167.632C167.301 167.632 167.246 167.632 167.137 167.632C167.137 166.147 167.137 164.661 167.137 163.176C167.137 161.525 166.753 161.195 165.165 161.525C164.836 161.58 164.508 161.635 164.179 161.745C157.607 163.451 150.87 163.781 144.133 163.066C138.71 162.461 133.343 161.36 127.92 160.535C127.263 160.425 126.332 160.645 125.948 161.085C125.401 161.745 125.072 162.681 124.908 163.561C124.305 168.017 123.758 172.473 123.265 176.93C122.991 179.405 123.538 180.12 126.003 180.175C130.33 180.23 134.657 180.23 139.039 180.175C141.12 180.175 141.23 179.845 141.723 177.81C142.325 175.444 143.037 173.023 143.968 170.768C144.845 168.732 147.036 168.677 147.967 170.713C148.733 172.308 149.117 174.124 149.5 175.884C149.774 177.26 150.377 178.25 151.855 178.305C155.799 178.47 159.743 178.635 163.686 178.525C165.603 178.47 166.37 177.59 166.644 175.609C167.027 172.968 167.192 170.328 167.411 167.632ZM85.0887 192.829C86.1294 192.664 86.951 192.609 87.7178 192.389C88.5394 192.169 89.58 191.949 90.0182 191.398C90.8945 190.188 91.497 188.758 92.1543 187.382C92.2638 187.217 92.2091 186.887 92.0995 186.667C91.1136 185.127 90.1277 183.421 88.2655 183.036C84.5958 182.266 81.0356 182.816 77.8589 184.907C76.1062 186.062 75.7228 188.318 77.1468 189.913C77.8589 190.738 78.8448 191.508 79.8854 191.839C81.5834 192.334 83.5004 192.499 85.0887 192.829ZM116.911 181.661C112.036 182.046 108.367 183.971 105.464 187.217C105.08 187.657 104.971 188.593 105.19 189.143C105.354 189.583 106.121 189.913 106.724 190.133C107.217 190.353 107.764 190.243 108.257 190.463C112.146 192.224 119.212 188.593 121.402 184.962C121.95 184.026 121.895 183.146 120.745 182.761C119.321 182.321 117.897 181.991 116.911 181.661ZM106.778 193.654C105.738 193.489 104.916 193.929 104.478 195.139C104.04 196.35 105.026 196.625 105.628 197.12C106.285 197.67 106.943 198.22 107.6 198.77C109.517 200.366 111.543 201.796 114.118 202.126C117.295 202.511 119.65 199.871 118.226 197.23C117.623 196.13 116.144 195.194 114.885 194.864C112.31 194.204 109.626 194.039 106.778 193.654ZM98.2887 181.331C98.3435 181.606 98.3983 182.266 98.5626 182.926C99.0555 185.292 100.918 186.062 102.78 184.632C105.245 182.706 106.888 180.285 107.162 177.04C107.381 174.289 105.847 173.134 103.218 174.014C100.48 174.949 98.3435 177.975 98.2887 181.331ZM30.81 61.1234C31.3029 61.8936 31.6863 62.5538 32.1245 63.159C33.0556 64.3143 33.0008 65.4696 32.1245 66.5699C31.5768 67.23 30.9743 67.8902 30.317 68.3854C28.893 69.4857 27.195 69.5957 26.0448 68.8255C24.2374 67.6152 23.4706 65.7997 23.9087 63.9292C24.0183 63.379 24.073 62.7738 24.1826 62.1137C21.8822 62.3887 20.8963 63.214 21.444 64.6444C22.4847 67.2851 21.444 69.2656 19.7461 71.1361C18.5959 72.4014 18.815 73.9419 20.2938 75.0972C20.5129 74.602 20.732 74.1619 21.0058 73.6668C21.8274 72.1264 23.1419 71.1361 24.7303 70.806C25.4971 70.641 26.4282 71.3562 27.3046 71.4662C27.9071 71.5762 28.7286 71.4662 29.2216 71.1911C30.4813 70.4759 31.6863 69.5957 32.8365 68.7154C33.3842 68.2753 34.2606 67.7802 34.3154 67.2851C34.4249 65.7447 34.4797 64.0942 34.0963 62.6088C33.7676 60.9584 33.0556 60.7383 30.81 61.1234ZM93.5783 198.715C93.6331 196.735 91.7161 195.304 90.0182 196.295C88.2655 197.285 86.6223 198.605 85.1435 199.926C84.0481 200.916 83.829 202.897 84.541 204.052C85.3626 205.372 86.6771 205.537 88.0464 205.317C91.2232 204.877 93.5236 202.181 93.5783 198.715ZM97.4124 203.007C97.0837 205.757 98.0149 207.903 100.589 209.168C102.506 210.103 104.04 209.278 104.423 207.188C104.916 204.272 103.985 201.686 102.232 199.431C101.52 198.495 100.48 198.11 99.2746 198.495C98.1244 198.825 97.6862 199.761 97.5219 200.861C97.4124 201.576 97.4124 202.291 97.4124 203.007ZM56.8813 68.3854C56.9361 76.1975 75.1203 86.3202 82.5692 84.3947C65.3162 78.3981 66.4664 77.7929 56.8813 68.3854ZM49.9253 72.2914C49.8158 72.1814 49.761 72.1264 49.6514 72.0163C49.2133 72.2914 48.7751 72.5665 48.3917 72.8966C41.3261 78.5631 33.5485 82.6342 24.2921 83.0743C23.6896 83.1293 23.1419 83.4594 22.5942 83.6795C22.649 83.8445 22.649 83.9545 22.7037 84.1196C23.0324 84.1746 23.4158 84.3397 23.7444 84.2846C25.6067 84.1746 27.4689 84.1746 29.2764 83.8995C34.6988 83.0193 39.9021 81.5889 44.5029 78.4531C46.8033 76.8576 48.7751 74.9321 49.9253 72.2914ZM145.831 178.195C145.612 178.25 145.447 178.25 145.228 178.305C145.173 179.13 145.064 179.955 145.119 180.781C145.283 183.146 143.859 184.797 141.339 184.301C140.792 184.191 140.244 184.357 139.258 184.412C139.751 184.852 139.915 185.017 140.025 185.072C142.599 185.512 144.078 187.162 145.009 189.473C145.119 189.803 145.502 190.188 145.831 190.188C147.419 190.243 149.007 190.243 150.705 190.243C148.679 188.373 148.514 187.712 148.953 184.962C149.062 184.412 148.843 183.421 148.46 183.201C147.364 182.596 146.926 181.771 146.652 180.616C146.488 179.735 146.104 178.965 145.831 178.195ZM86.8414 76.4725C86.951 75.8124 86.951 75.5373 87.0057 75.2622C87.2796 73.8318 87.4439 72.2914 89.0323 71.5762C90.5111 70.861 91.7709 71.3562 93.0854 72.0163C93.4688 72.1814 93.8522 72.2914 94.2356 72.4014C94.3452 71.9613 94.5642 71.5212 94.5095 71.0811C94.3452 69.5407 92.3734 67.4501 90.8398 67.2851C90.4016 67.23 89.7443 67.5051 89.5252 67.8352C88.7037 69.4306 87.3344 69.7607 85.8008 69.7607C84.9244 69.7607 83.9933 69.5407 83.1717 69.3206C82.2954 69.1006 81.8572 69.3756 81.9668 70.3109C82.0215 70.806 82.0763 71.4662 82.4049 71.7963C83.7742 73.2817 85.1983 74.7671 86.8414 76.4725ZM141.887 192.939C141.558 191.784 141.285 190.628 140.792 189.528C140.189 188.098 139.313 187.988 138.327 189.198C137.396 190.353 136.355 191.068 134.931 191.398C134.548 191.508 134 192.004 133.945 192.389C133.507 195.084 136.191 197.23 138.71 196.185C139.039 196.075 139.313 195.91 139.641 195.855C141.449 195.69 141.723 194.479 141.887 192.939ZM54.4713 207.133C54.4713 205.097 53.4307 203.997 52.2257 204.657C49.9253 205.922 47.8987 207.628 46.8033 210.103C46.5294 210.709 46.5842 211.919 46.9676 212.249C47.4606 212.689 48.7751 212.854 49.268 212.524C50.966 211.259 52.4448 209.773 53.9784 208.288C54.2523 208.013 54.3618 207.408 54.4713 207.133ZM98.1792 188.538C97.9053 188.593 97.3576 188.593 96.8646 188.758C95.112 189.253 93.9617 191.233 94.3999 192.939C94.7286 194.314 96.2622 195.139 98.0696 194.864C98.5078 194.809 98.8912 194.644 99.3294 194.534C101.027 193.984 101.904 192.719 101.685 191.233C101.465 189.638 100.096 188.538 98.1792 188.538ZM68.219 204.107C69.8074 203.612 71.2863 203.282 72.7103 202.731C73.8605 202.236 74.5726 201.301 74.0796 199.981C73.6414 198.77 72.4365 198.715 71.3958 198.88C69.4788 199.266 67.6166 199.761 65.6995 200.256C64.2207 200.586 63.7825 201.906 64.9875 202.841C65.8639 203.502 67.1236 203.667 68.219 204.107ZM128.577 209.223C128.577 210.819 129.235 211.589 130.659 211.479C132.576 211.369 135.095 209.333 135.698 207.518C136.136 206.197 135.643 205.262 134.329 204.877C131.809 204.162 128.577 206.638 128.577 209.223ZM66.1925 210.158C65.9186 206.638 63.3444 205.152 60.1128 206.582C58.9079 207.133 58.634 207.793 59.5103 208.783C60.4962 209.938 61.6464 210.984 62.8514 211.809C63.3991 212.194 64.4946 212.304 65.0423 212.029C65.59 211.809 65.8091 210.819 66.1925 210.158ZM48.1178 197.725C47.1319 197.945 45.7626 198.055 44.4481 198.55C43.7361 198.825 43.2431 199.596 42.6954 200.201C43.3527 200.751 44.0099 201.301 44.6672 201.796C44.722 201.851 44.8315 201.851 44.9411 201.851C47.4606 202.456 49.4323 201.026 51.5137 200.091C51.7875 199.981 52.0066 199.266 51.9518 198.825C51.8971 198.55 51.4041 198.22 51.0207 198.11C50.2539 197.945 49.3776 197.89 48.1178 197.725ZM153.115 201.081C153.115 201.026 153.06 200.971 153.06 200.916C151.582 201.356 150.048 201.796 148.569 202.236C147.583 202.511 147.638 203.062 148.076 203.832C149.774 207.188 154.156 205.757 155.416 203.777C156.237 202.456 155.744 201.411 154.265 201.191C153.882 201.136 153.499 201.136 153.115 201.081ZM43.4622 72.2364C43.4075 72.0714 43.2979 71.9613 43.2431 71.7963C41.4357 72.6765 39.683 73.5568 37.8755 74.382C35.1369 75.6473 32.3983 76.8576 29.3311 76.8576C27.9618 76.8576 26.8664 77.9579 26.5378 79.6084C33.0556 79.0582 38.478 76.0874 43.4622 72.2364ZM131.316 201.521C131.809 201.466 132.302 201.521 132.74 201.356C133.288 201.081 134 200.751 134.164 200.256C134.329 199.816 133.945 199.045 133.616 198.605C132.959 197.78 132.247 196.955 131.426 196.405C130.823 195.965 129.782 195.635 129.18 195.855C128.577 196.075 127.92 197.065 127.865 197.725C127.646 199.541 128.742 201.686 131.316 201.521ZM142.38 212.084C144.626 212.084 145.94 210.764 145.995 208.508C145.995 207.078 145.283 206.472 143.914 206.748C143.147 206.913 142.325 207.133 141.558 207.298C140.463 207.573 139.422 207.958 139.641 209.443C139.751 210.929 141.011 212.084 142.38 212.084ZM57.8672 194.754C57.922 195.029 57.922 195.304 57.9767 195.58C59.346 196.02 60.7153 196.46 62.0846 196.79C62.3585 196.845 62.7966 196.57 63.0705 196.35C64.7684 194.809 66.083 193.049 66.5759 190.738C66.6854 190.243 66.5759 189.693 66.5759 188.758C63.8373 191.508 61.3726 193.929 57.8672 194.754ZM7.80584 89.7861C9.44899 88.7408 10.5992 87.4755 11.8042 87.3655C12.9544 87.3105 14.1594 88.4658 15.4739 89.1809C16.6789 86.7053 17.9934 84.0646 19.2531 81.4239C19.3079 81.2588 19.034 80.7087 18.815 80.6537C18.5411 80.5986 17.9934 80.7087 17.8838 80.9287C17.6648 81.3138 17.7743 81.864 17.6647 82.3041C17.3361 83.2393 17.1718 84.3947 16.5145 85.1099C14.7619 86.9804 12.3519 87.0354 10.3253 85.4399C9.72285 84.9448 8.95604 84.5597 8.57264 85.55C8.18924 86.7603 8.0797 88.1357 7.80584 89.7861ZM102.287 115.698C102.287 114.323 101.575 113.552 100.37 113.167C99.0555 112.782 97.9601 113.222 97.2481 114.323C96.536 115.368 97.029 116.413 97.8505 117.294C98.1792 117.624 98.5078 118.009 98.8912 118.284C100.041 119.164 101.192 118.944 101.794 117.624C102.068 117.073 102.178 116.358 102.287 115.698ZM91.8257 82.6892C91.1684 83.1293 89.8539 83.6795 89.9087 84.0096C90.2373 85.8801 90.785 87.8056 91.5518 89.5661C91.7161 89.8961 93.1402 89.6761 94.0165 89.7311C93.9618 89.236 93.907 88.6858 93.8522 88.1907C93.7427 87.0354 93.414 85.8251 93.4688 84.6697C93.5784 83.0743 93.6331 82.9643 91.8257 82.6892ZM83.8838 79.9385C83.4456 79.7734 83.1717 79.6634 82.8979 79.5534C80.1045 78.6181 77.2564 77.8479 74.5726 76.6376C70.4099 74.8221 66.4116 72.7315 63.8373 68.6604C63.5087 68.1103 62.6323 67.8902 61.7012 67.3951C62.6323 72.1814 79.1734 81.3138 83.8838 79.9385ZM147.09 199.1C148.295 198.55 149.172 198.275 149.938 197.78C150.87 197.175 151.253 196.075 150.705 195.139C150.377 194.534 149.446 194.094 148.679 193.874C147.364 193.544 146.597 194.534 145.885 195.415C145.447 195.965 144.79 196.9 145.009 197.175C145.502 198 146.378 198.495 147.09 199.1ZM140.627 199.1C139.258 199.1 138.163 199.926 138.272 201.026C138.491 202.842 139.094 204.052 140.518 203.997C141.997 203.942 143.311 202.952 143.311 201.906C143.311 200.531 141.942 199.1 140.627 199.1ZM101.794 133.743C103.711 133.743 104.861 132.973 104.916 131.817C104.916 130.882 103.109 128.737 102.287 128.737C101.246 128.737 100.425 130.332 100.425 132.368C100.425 133.468 101.082 133.688 101.794 133.743ZM62.0298 187.492C60.2771 187.162 58.5245 186.887 57.0456 187.767C56.4431 188.153 56.0049 189.473 56.1145 190.298C56.224 191.453 57.429 191.288 58.1958 190.958C59.8937 190.408 60.9344 188.978 62.0298 187.492ZM152.732 186.887C154.923 186.227 156.675 185.512 157.88 183.916C158.264 183.421 158.373 182.706 157.497 182.431C155.689 181.881 152.622 183.586 152.239 185.402C152.184 185.842 152.568 186.337 152.732 186.887ZM57.9767 203.337C59.4008 203.337 60.4962 202.456 60.4962 201.356C60.4415 200.201 59.2913 199.266 57.7576 199.266C56.4431 199.266 55.6763 200.036 55.6763 201.411C55.6763 202.566 56.6074 203.337 57.9767 203.337ZM7.75107 91.5466C7.42244 94.5174 9.2299 96.663 12.0233 96.883C12.6258 96.938 13.6116 96.828 13.8307 96.4979C14.2141 95.7827 14.2141 94.7925 14.3784 93.9672C14.2689 93.8572 14.1594 93.7472 14.0498 93.5821C10.9826 96.1678 9.28467 94.4074 7.75107 91.5466ZM187.786 97.9833C187.786 98.3684 187.731 98.7535 187.731 99.1386C187.731 100.349 188.443 100.899 189.319 100.074C190.141 99.2487 190.798 98.1484 191.182 97.0481C191.51 96.1128 190.36 95.1776 189.21 95.1226C188.005 95.0675 187.95 95.8377 187.895 96.718C187.786 97.1581 187.786 97.5982 187.786 97.9833ZM108.969 92.8119C106.943 93.252 105.902 95.3976 106.504 97.5982C106.724 98.5335 107.326 98.9736 108.148 98.6985C108.641 98.5335 109.298 97.8183 109.353 97.2681C109.353 95.8377 109.134 94.3523 108.969 92.8119ZM109.243 127.746C108.969 126.151 108.202 125.491 106.231 125.161C105.026 124.941 104.368 125.766 104.861 126.866C105.19 127.526 105.628 128.241 106.231 128.682C106.778 129.067 107.6 129.452 108.202 129.342C108.586 129.232 108.86 128.296 109.243 127.746ZM133.397 183.531C132.795 183.971 131.864 184.302 131.645 184.907C131.316 185.842 132.85 187.547 133.781 187.547C134.712 187.547 135.588 186.557 135.588 185.512C135.588 184.191 134.767 183.806 133.397 183.531ZM95.112 123.345C95.8788 122.96 96.8099 122.575 97.6315 122.025C97.7958 121.915 97.6315 120.869 97.5219 120.869C96.2622 120.649 95.0024 120.539 93.7427 120.484C93.414 120.484 92.8115 121.035 92.8115 121.31C92.8115 121.805 93.0306 122.41 93.414 122.74C93.6879 123.125 94.2904 123.125 95.112 123.345ZM99.2198 126.316C99.0555 126.206 98.7817 125.986 98.5078 125.931C97.4124 125.821 94.7833 127.471 94.5095 128.572C94.3999 128.957 94.8381 129.782 95.1667 129.892C96.1526 130.222 99.2198 127.636 99.2198 126.316ZM29.8241 64.0942C29.7693 63.214 29.2764 62.7188 28.1809 62.7738C26.8116 62.8289 26.2639 63.434 26.2639 64.6994C26.2639 65.8547 26.9212 66.3498 27.9618 66.4048C28.9477 66.4598 29.8788 65.3596 29.8241 64.0942ZM91.9352 75.8674C92.1543 75.5923 92.9211 75.0972 92.9759 74.547C93.0306 73.5017 92.1543 72.8966 91.0589 72.8966C90.1825 72.8966 89.4157 73.1717 89.3609 74.1619C89.2514 75.0422 90.292 75.8674 91.9352 75.8674ZM39.6282 187.107C39.5187 187.327 39.4091 187.547 39.2996 187.712C39.9568 188.318 40.5046 189.033 41.2714 189.528C41.7095 189.858 42.4763 190.023 42.9145 189.858C43.2431 189.748 43.517 188.813 43.4075 188.428C43.2431 187.877 42.6406 187.272 42.1477 187.107C41.3261 186.942 40.4498 187.107 39.6282 187.107ZM104.259 121.64C103.437 120.979 102.78 120.209 102.506 120.319C101.904 120.594 101.137 121.255 101.027 121.86C100.973 122.355 101.739 122.96 102.178 123.51C102.78 123.015 103.382 122.465 104.259 121.64ZM107.217 121.31C107.217 121.585 107.271 121.86 107.271 122.135C108.257 122.3 109.243 122.575 110.229 122.52C110.612 122.52 110.941 121.695 111.27 121.255C110.886 120.979 110.393 120.429 110.065 120.484C109.079 120.594 108.148 120.979 107.217 121.31ZM98.2339 86.9804C98.0149 85.66 98.0149 84.5047 96.7003 84.3947C96.4265 84.3947 95.7144 85.2199 95.824 85.3849C96.2622 86.2102 96.8647 86.9804 97.3576 87.7506C97.6862 87.4755 98.0149 87.1454 98.2339 86.9804ZM71.341 69.6507C71.2315 69.8157 71.1767 69.9808 71.0672 70.1458C73.5319 71.4662 75.9966 72.7315 78.5161 74.0519C78.6257 73.8318 78.7352 73.6118 78.8448 73.3367C76.3253 72.1264 73.8058 70.861 71.341 69.6507ZM106.395 117.899C106.614 117.954 106.833 118.009 107.052 118.064C107.49 117.294 108.093 116.578 108.367 115.753C108.476 115.423 107.983 114.708 107.6 114.488C107.381 114.378 106.504 114.818 106.45 115.148C106.285 116.028 106.395 116.963 106.395 117.899ZM85.8008 65.0845C85.1435 65.6346 84.7601 66.0197 84.3767 66.3498C84.9792 66.7349 85.4721 67.3401 86.1294 67.5051C86.458 67.5601 87.0058 66.9 87.4439 66.5699C86.951 66.0747 86.458 65.6346 85.8008 65.0845ZM26.0448 73.8318C23.9087 73.1716 22.7037 74.382 23.3062 76.3625C24.2921 75.4273 25.1685 74.602 26.0448 73.8318ZM12.2423 82.3041C12.6805 83.3494 13.283 84.1196 14.3237 83.4594C14.7071 83.2394 14.9809 82.029 14.8166 81.809C13.8855 80.9837 13.0639 81.6439 12.2423 82.3041ZM39.19 70.5309C39.1353 70.3659 39.0257 70.2559 38.971 70.0908C37.273 70.806 35.1369 70.586 34.2606 73.0066C35.9037 72.2364 37.5469 71.3562 39.19 70.5309ZM87.1701 77.4628C87.4439 78.288 87.5535 78.7832 87.7726 79.1683C87.9916 79.4983 88.5394 79.9935 88.7584 79.8835C89.1966 79.6634 89.58 79.1683 89.9634 78.7832C89.6348 78.5081 89.3062 78.178 88.9228 77.9579C88.4846 77.8479 87.9916 77.7379 87.1701 77.4628ZM91.7709 93.8572C92.2638 94.5174 92.5925 95.0125 92.8663 95.4526C93.2497 94.9575 93.7974 94.5174 93.907 93.9672C93.9618 93.6372 93.3593 93.087 92.9211 92.922C92.702 92.867 92.2638 93.4171 91.7709 93.8572ZM19.3627 66.5699C19.1436 66.4598 18.9245 66.4048 18.7054 66.2948C17.9386 67.01 17.5004 67.7802 17.7195 68.8255C17.8838 68.8805 18.0482 68.9905 18.2672 69.0455C18.6506 68.2203 19.034 67.3951 19.3627 66.5699Z" fill="#21B364"/>
<path d="M129.18 80.8183C135.863 80.2131 141.34 84.6693 144.078 91.3261C145.448 94.627 146.05 97.9829 146.05 101.559C146.05 102.659 146.434 103.814 146.926 104.805C147.474 105.905 147.146 106.18 146.105 106.235C143.914 106.345 142.271 104.86 142.216 102.604C142.216 102.164 142.216 101.724 142.271 101.339C143.366 96.5525 141.395 92.3164 139.313 88.3553C137.451 84.7793 133.562 83.459 129.619 84.2292C127.975 84.5593 126.332 84.8344 124.689 84.9444C124.032 84.9994 123.32 84.3392 122.663 84.0091C123.046 83.404 123.265 82.5237 123.758 82.3037C125.456 81.5885 127.263 81.0934 129.071 80.5432C129.071 80.5432 129.126 80.7083 129.18 80.8183Z" fill="#21B364"/>
<path d="M145.283 118.505C140.024 118.615 136.629 115.974 133.89 112.178C133.288 111.353 132.685 110.418 132.247 109.482C132.028 108.987 132.028 107.997 132.302 107.722C132.685 107.392 133.561 107.392 134.109 107.612C134.657 107.777 135.15 108.327 135.533 108.767C137.176 110.748 138.984 112.618 141.339 113.774C145.392 115.754 152.512 115.644 156.839 111.353C157.661 110.528 158.483 109.757 159.195 108.877C160.071 107.832 161.112 107.557 161.878 108.162C162.7 108.822 162.7 110.638 161.933 111.463C159.14 114.544 149.555 118.505 145.283 118.505Z" fill="#21B364"/>
<path d="M162.153 80.5984C164.727 81.2036 167.74 81.4786 170.149 83.3491C171.135 84.1193 171.793 85.3847 172.45 86.54C172.559 86.705 171.902 87.6403 171.683 87.6403C170.697 87.5853 169.711 87.4202 168.78 87.0351C167.52 86.54 166.315 85.7698 165.11 85.1646C162.208 83.7342 159.688 84.3944 157.333 86.3749C156.895 86.76 156.457 87.1451 156.018 87.4752C155.252 88.0254 154.54 88.0254 153.827 87.4202C153.061 86.76 153.17 85.9898 153.608 85.2196C155.525 82.1388 158.374 80.8184 162.153 80.5984Z" fill="#21B364"/>
<path d="M133.673 91.3817C133.618 93.0322 132.633 93.9674 130.88 93.9124C128.963 93.8574 127.21 91.9869 127.265 90.0064C127.32 88.576 128.689 87.4207 130.332 87.5307C132.413 87.5857 133.783 89.1811 133.673 91.3817Z" fill="#21B364"/>
<path d="M164.18 91.3808C164.125 93.1413 162.92 94.6267 161.551 94.5717C160.017 94.4617 158.1 92.4261 158.155 90.8307C158.21 89.2353 159.634 88.19 161.66 88.245C163.194 88.3 164.235 89.5653 164.18 91.3808Z" fill="#21B364"/>
<path d="M63.8935 85.4389C65.3175 85.659 66.7416 85.879 68.1109 86.1541C68.6586 86.2641 69.2611 86.5392 69.5897 86.9243C69.8636 87.2544 70.0827 87.8596 69.9731 88.2997C69.9184 88.5748 69.2063 88.8498 68.8229 88.8498C68.1657 88.8498 67.5084 88.5748 66.9059 88.4097C57.7043 86.3742 53.213 95.6166 55.6229 102.053C55.7325 102.383 55.8968 102.769 56.0063 103.154C56.9375 106.565 54.9657 108.875 51.5151 108.435C50.8578 108.38 50.0362 107.665 49.8171 107.06C49.4337 106.069 50.2005 105.684 51.0769 105.409C52.6653 104.914 52.9391 104.199 52.3366 102.273C51.2412 98.9176 51.4055 95.6717 52.7748 92.4808C54.5275 88.2447 59.3474 85.2739 63.8935 85.4389Z" fill="#21B364"/>
<path d="M52.5545 119.878C48.9395 119.768 46.6391 118.503 44.6673 116.578C43.0242 114.982 41.6549 113.167 40.1761 111.406C39.6283 110.746 38.752 109.701 39.7379 109.096C40.3952 108.71 41.874 108.876 42.586 109.371C44.2839 110.636 45.6532 112.231 47.2416 113.607C48.7752 114.982 50.4184 116.192 52.664 116.248C55.2383 116.358 56.7171 114.652 58.196 112.947C58.7984 112.231 59.2366 111.351 59.8939 110.636C60.3321 110.141 60.9893 109.646 61.6466 109.536C62.1943 109.426 63.0159 109.756 63.3993 110.141C63.6184 110.416 63.454 111.351 63.1802 111.791C61.4275 114.542 59.4557 117.128 56.3885 118.613C54.8549 119.273 53.3213 119.603 52.5545 119.878Z" fill="#21B364"/>
<path d="M40.5057 94.3532C40.5057 96.2237 39.4651 97.324 37.6576 97.379C35.6858 97.379 33.2759 95.6735 33.2759 94.2432C33.3307 92.4277 35.3024 90.6672 37.2742 90.6672C39.1912 90.6122 40.5605 92.1526 40.5057 94.3532Z" fill="#21B364"/>
<path d="M64.2759 91.4382C66.3572 91.4382 67.3431 92.3735 67.3431 94.299C67.3431 96.2245 66.0833 97.7099 64.4402 97.7099C62.7422 97.7099 60.88 95.5643 60.9348 93.6388C60.9895 92.2635 62.3041 91.4382 64.2759 91.4382Z" fill="#21B364"/>
<path d="M124.197 236.51C124.033 237.555 124.142 238.766 123.704 239.701C122.718 241.847 121.568 243.992 120.254 245.973C119.377 247.348 118.117 248.778 116.31 248.338C114.667 247.898 114.667 246.028 114.393 244.597C114.338 244.377 114.283 244.157 114.174 243.552C113.462 244.982 112.859 246.138 112.257 247.238C111.873 247.953 111.435 248.668 110.942 249.329C109.902 250.649 108.751 250.539 108.149 248.998C107.766 248.008 107.711 246.908 107.382 245.477C106.834 246.633 106.451 247.513 105.903 248.338C105.137 249.549 104.37 250.759 103.329 251.749C101.96 253.07 100.098 252.574 99.6593 250.704C99.2212 248.613 99.2212 246.468 99.0568 244.322C99.0568 244.102 99.0568 243.882 99.0568 243.552C98.0162 243.937 96.9755 244.267 96.0992 244.762C95.7158 244.982 95.3324 245.588 95.3324 246.083C95.2228 247.403 95.3324 248.778 95.2776 250.099C95.2776 251.034 95.2776 251.914 95.0585 252.794C94.949 253.235 94.5108 253.565 94.1822 253.95C93.7988 253.565 93.251 253.29 93.0867 252.849C92.8676 252.244 92.8129 251.529 92.8129 250.869C92.8129 249.549 92.9772 248.283 92.9224 246.963C92.9224 245.973 92.6486 245.037 92.539 244.047C92.3747 244.047 92.2104 243.992 92.1008 243.992C91.827 244.432 91.6627 244.927 91.334 245.367C90.1838 247.073 89.1979 248.888 87.8286 250.374C86.5689 251.749 84.9805 251.364 84.1589 249.659C83.8303 248.943 83.6112 248.118 83.4469 247.348C83.2826 246.633 83.1731 245.863 83.0087 244.762C82.1872 246.248 81.6394 247.458 80.9822 248.558C80.4345 249.439 79.8868 250.374 79.1747 251.144C77.6959 252.904 76.1075 252.629 75.6146 250.374C75.2312 248.503 75.3955 246.468 75.3407 244.542C75.3407 244.212 75.3955 243.827 75.4502 243.332C74.0809 244.927 72.8212 246.358 71.5615 247.733C71.3424 248.008 71.0685 248.173 70.7946 248.393C67.8917 250.704 64.9341 249.769 63.9482 246.248C63.6743 245.257 63.6196 244.157 63.1814 242.947C62.5789 244.047 61.8669 245.147 61.4287 246.358C60.9905 247.458 60.881 248.668 60.5523 249.824C60.388 250.264 59.9498 250.649 59.6212 251.034C59.3474 250.594 58.7996 250.154 58.7996 249.714C58.7996 247.898 58.964 246.083 59.0735 244.267C59.1283 243.497 59.1283 242.782 58.9092 241.902C58.4162 242.672 57.9233 243.442 57.4303 244.212C56.1706 246.248 54.9656 248.338 53.7059 250.319C53.4868 250.649 53.0486 250.814 52.72 251.034C52.4461 250.649 51.9532 250.264 51.9532 249.934C52.0627 248.943 52.2818 247.953 52.6652 247.073C53.9797 244.432 54.637 241.681 54.3084 238.711C54.2536 238.216 54.144 237.665 53.9797 237.17C53.432 235.905 52.72 235.795 51.6793 236.73C51.3507 237.005 50.9125 237.17 50.5839 237.335C50.4196 236.84 50.1457 236.345 50.2005 235.905C50.2553 234.53 51.4602 233.154 52.6652 232.879C54.0893 232.604 55.1847 233.099 55.7324 234.805C56.3349 236.675 56.554 238.656 56.9374 240.856C57.8685 238.931 58.8544 237.06 59.7308 235.19C59.8951 234.915 59.8403 234.475 60.0046 234.254C60.2785 233.924 60.6619 233.704 60.9905 233.429C61.2096 233.814 61.7025 234.199 61.7025 234.53C61.593 236.4 61.3739 238.271 61.2096 240.086C61.1548 240.581 61.1 241.076 61.0453 241.571C61.1548 241.626 61.3191 241.681 61.4287 241.736C62.5789 239.976 63.6743 238.161 64.8793 236.4C65.427 235.575 65.92 234.695 66.632 233.979C68.1656 232.384 69.5897 232.659 70.2469 234.75C70.5756 235.85 70.5756 237.06 70.5756 238.271C70.5756 238.546 70.0826 238.876 69.8088 239.151C69.5897 238.876 69.261 238.656 69.0967 238.326C68.7133 237.775 68.4395 237.17 68.1108 236.565C67.5631 237.17 66.8511 237.72 66.4677 238.381C65.3722 240.416 65.4818 242.507 66.139 244.652C66.5224 245.863 67.3988 246.468 68.549 245.918C69.6992 245.422 70.959 244.817 71.7258 243.937C73.3689 242.122 74.7382 240.141 76.1075 238.105C76.6004 237.335 76.6552 236.29 77.0934 235.41C77.3125 234.97 77.8054 234.64 78.1888 234.309C78.4627 234.75 79.0104 235.245 79.0652 235.685C79.0652 236.73 78.8461 237.775 78.6818 238.821C78.3531 241.131 77.9697 243.442 77.6411 245.753C77.5316 246.413 77.6959 247.073 77.6959 247.678C77.8054 247.733 77.9697 247.843 78.0793 247.898C78.5722 247.348 79.1747 246.798 79.5581 246.193C81.5299 243.222 83.1183 240.086 84.0494 236.62C84.2137 236.015 84.871 235.52 85.3092 235.025C85.5282 235.685 85.9664 236.4 85.9116 237.06C85.6925 239.646 85.2544 242.177 85.1448 244.762C85.0901 245.698 85.8569 246.633 86.1855 247.513C86.9523 246.963 87.993 246.633 88.4859 245.863C89.6361 244.212 90.5125 242.397 91.5531 240.691C92.6486 238.876 93.4701 237.005 93.3058 234.805C93.251 234.42 93.3606 233.979 93.5249 233.704C93.744 233.319 94.1274 233.044 94.4012 232.714C94.6751 233.044 95.0585 233.319 95.1133 233.704C95.2776 234.364 95.3324 235.025 95.3324 235.685C95.2776 236.785 95.0585 237.885 95.1133 238.986C95.1133 239.756 94.5108 240.856 95.7158 241.186C96.866 241.516 98.8925 240.416 99.1116 239.371C99.3855 237.995 99.3855 236.51 99.6593 235.135C99.8237 234.365 100.317 233.099 100.645 233.099C101.905 233.099 101.795 234.309 101.741 235.19C101.576 237.94 101.193 240.746 101.029 243.497C100.974 244.927 101.029 246.358 101.302 247.788C101.522 249.053 102.398 249.329 103.165 248.283C104.151 247.018 105.027 245.643 105.739 244.157C107.218 241.076 108.478 237.83 110.011 234.75C110.668 233.429 111.654 232.164 112.695 231.119C113.517 230.293 114.283 230.679 115.05 231.669C116.146 233.154 116.2 234.64 116.036 236.4C115.872 238.656 115.927 240.911 116.036 243.112C116.091 243.717 116.639 244.322 116.912 244.927C117.46 244.597 118.227 244.432 118.556 243.992C119.925 242.067 121.185 240.031 122.499 238.05C122.828 237.61 123.047 237.115 123.321 236.62C123.814 236.4 124.033 236.455 124.197 236.51ZM114.502 233.759C111.819 234.254 108.751 243.442 110.176 246.578C112.859 242.672 114.393 238.546 114.502 233.759Z" fill="#21B364"/>
<path d="M52.4461 238.108C52.3914 238.658 52.5557 239.263 52.3366 239.703C50.7482 242.674 49.1598 245.7 47.3524 248.561C46.4212 250.046 45.1067 251.476 43.0254 250.926C40.9441 250.376 40.3964 248.616 40.013 246.745C39.9034 246.36 39.8486 245.92 39.7391 245.48C39.52 245.535 39.3557 245.535 39.2462 245.59C36.891 247.24 35.6312 246.745 35.1383 243.939C34.7549 241.849 34.5906 239.703 34.0428 237.503C33.4951 238.878 32.9474 240.253 32.3449 241.629C31.7972 242.839 31.3043 244.104 30.7018 245.26C30.4827 245.645 29.8802 246.085 29.4968 246.03C29.1134 245.975 28.5109 245.425 28.4561 245.04C28.1823 243.444 28.0727 241.794 27.9632 240.198C27.9084 239.098 27.9632 237.943 27.9632 236.842C27.7441 236.787 27.5798 236.787 27.3607 236.732C26.7034 238.053 26.0462 239.318 25.4437 240.638C24.7864 242.069 24.2387 243.554 23.5267 244.985C23.3076 245.48 22.5956 246.085 22.2669 246.03C21.8288 245.975 21.2263 245.315 21.1167 244.82C20.8429 243.829 20.7881 242.729 20.7881 241.684C20.8976 239.208 21.1167 236.732 21.3358 234.202C21.3358 233.927 21.3358 233.542 21.5001 233.376C21.8835 232.936 22.3217 232.606 22.7599 232.221C23.0337 232.661 23.6362 233.101 23.5814 233.542C23.4719 235.522 23.198 237.558 22.979 239.538C22.9242 239.923 22.8694 240.308 23.0885 240.803C23.3076 240.418 23.5267 239.978 23.691 239.593C24.403 238.053 25.1151 236.457 25.9366 234.917C26.4296 233.982 27.0868 232.991 28.3466 233.266C29.6063 233.542 29.7706 234.807 29.8254 235.797C29.935 237.503 29.8802 239.208 29.8802 240.969C30.0445 241.024 30.1541 241.079 30.3184 241.079C30.5375 240.693 30.7565 240.253 30.9756 239.868C31.7424 238.218 32.3449 236.512 33.2213 234.917C33.5499 234.312 34.3715 233.597 34.974 233.597C36.0694 233.597 36.398 234.752 36.5076 235.742C36.6171 237.283 36.6719 238.823 36.7267 240.363C36.7267 240.638 36.7267 240.969 36.8362 241.189C37.1648 241.904 37.4935 242.619 37.8221 243.334C38.5889 242.619 39.5748 241.959 40.013 241.079C40.6154 239.703 40.6702 238.108 41.2179 236.677C41.6561 235.522 42.3134 234.422 43.1349 233.542C44.3947 232.056 45.8188 232.441 46.476 234.257C47.1881 236.237 46.8047 238.218 45.9283 239.978C45.1067 241.739 43.9565 243.334 42.7515 244.875C42.0395 245.81 41.93 246.525 42.6968 247.405C43.5183 248.341 44.5042 248.285 45.1615 247.46C46.969 245.15 48.6669 242.729 50.3648 240.308C50.9125 239.538 51.4055 238.713 51.9532 237.943C52.0627 237.943 52.2818 237.998 52.4461 238.108ZM41.8752 242.399C43.2445 241.134 44.6686 238.328 44.6686 237.007C44.6686 236.622 44.2852 236.182 44.1208 235.797C43.847 236.237 43.4636 236.677 43.354 237.173C43.0254 238.383 42.8611 239.593 42.5325 240.803C42.4229 241.244 42.2038 241.629 41.8752 242.399Z" fill="#21B364"/>
<path d="M168.013 219.513C168.616 221.108 167.794 222.043 166.808 222.759C165.877 223.474 164.781 223.969 163.686 224.629C163.905 224.959 164.015 225.234 164.234 225.399C169.437 229.195 169.492 238.053 167.027 242.509C166.589 243.279 165.932 243.994 165.274 244.544C163.96 245.645 162.755 245.37 162.098 243.719C161.495 242.179 161.276 240.528 160.893 238.878C160.783 238.438 160.783 237.943 160.783 237.668C159.414 237.943 158.209 238.163 157.168 238.383C156.675 240.198 156.292 242.069 155.635 243.884C155.032 245.59 153.772 246.855 152.02 247.57C151.034 247.955 150.212 247.845 149.61 246.965C149.062 246.14 148.46 245.205 148.295 244.269C147.638 239.758 148.405 235.522 150.815 231.616C151.143 231.121 151.636 230.626 152.129 230.351C153.444 229.525 154.813 229.966 155.47 231.341C155.799 232.056 155.908 232.881 156.292 233.486C156.785 234.202 157.497 235.192 158.209 235.302C159.03 235.412 160.071 234.752 160.728 234.147C161.331 233.541 161.605 232.551 161.988 231.726C162.481 230.571 163.138 229.525 164.891 229.415C164.069 228.59 163.412 227.875 162.755 227.215C160.783 225.234 161.112 222.814 163.522 221.548C165.001 220.943 166.479 220.283 168.013 219.513ZM153.006 233.046C152.622 233.597 152.184 234.092 151.965 234.697C150.869 237.227 150.267 239.868 150.596 242.619C150.65 243.224 151.143 243.829 151.417 244.434C152.129 244.104 153.006 243.939 153.444 243.389C154.868 241.684 155.251 239.538 155.306 237.337C155.306 237.062 155.251 236.732 155.087 236.512C154.484 235.467 153.772 234.367 153.006 233.046ZM164.069 242.399C166.479 240.748 167.356 233.982 165.548 231.396C163.193 232.441 162.152 239.648 164.069 242.399Z" fill="#21B364"/>
<path d="M190.744 231.009C190.032 232.22 189.429 233.485 188.662 234.585C188.06 235.521 187.567 236.841 186.143 236.511C184.664 236.126 184.883 234.695 184.719 233.485C184.664 232.935 184.719 232.385 184.39 231.725C182.309 234.035 180.227 236.346 178.146 238.712C177.434 239.482 176.886 240.637 175.627 239.702C174.805 239.097 175.024 237.886 176.284 236.896C178.694 235.026 179.351 232.55 179.187 229.689C179.132 229.249 178.749 228.809 178.529 228.369C178.146 228.644 177.598 228.864 177.325 229.304C175.079 232.88 173.71 236.676 174.093 240.967C174.257 242.948 174.476 244.873 174.641 246.854C174.805 248.669 174.257 249.88 173.326 249.77C171.738 249.549 172.121 248.174 172.066 247.129C171.738 241.957 171.409 236.786 171.135 231.615C171.081 230.954 171.081 230.239 171.245 229.634C171.354 229.194 171.902 228.534 172.121 228.589C172.559 228.699 173.162 229.139 173.326 229.579C173.6 230.349 173.6 231.23 173.71 232.165C174.476 230.514 175.134 228.919 175.955 227.434C176.667 226.223 177.598 225.068 179.242 225.343C180.446 225.508 181.432 227.158 181.542 228.974C181.597 229.524 181.542 230.129 181.487 230.679C181.432 231.23 181.213 231.78 180.994 232.66C181.487 232.275 181.761 232.165 181.925 231.945C183.678 229.634 185.431 227.323 187.183 225.013C187.731 224.298 188.279 223.527 188.991 223.032C189.539 222.647 190.579 222.372 191.017 222.647C191.839 223.087 192.77 223.637 192.606 225.068C192.441 226.553 192.496 228.149 192.661 229.634C192.825 231.12 193.646 231.395 194.687 230.294C196.166 228.699 197.426 226.993 198.74 225.288C199.014 224.958 199.288 224.573 199.562 224.188C199.726 224.243 199.89 224.298 200 224.353C199.89 224.903 199.945 225.563 199.671 225.948C198.412 227.874 197.261 229.854 195.728 231.56C193.537 234.145 192.332 233.98 190.744 231.009ZM190.524 224.518C187.786 226.058 187.348 228.864 186.69 231.45C186.526 232.165 186.69 233.045 186.69 233.815C186.855 233.815 187.019 233.815 187.183 233.815C189.155 231.009 190.689 228.094 190.524 224.518Z" fill="#21B364"/>
<path d="M144.626 252.191C146.269 251.751 147.857 251.31 149.391 250.925C150.157 250.705 151.034 250.43 151.253 251.531C151.472 252.466 150.65 252.686 149.938 252.906C148.35 253.346 146.816 253.896 145.228 254.171C143.201 254.501 142.216 255.822 141.175 257.417C140.025 259.123 138.655 260.773 137.122 262.148C135.643 263.524 133.945 262.864 133.397 260.828C132.631 258.187 134.328 255.106 136.903 254.391C137.834 254.116 138.765 253.896 139.641 253.676C141.12 253.346 141.887 252.301 142.27 250.925C142.38 250.65 142.051 250.21 141.832 249.935C141.011 248.78 139.806 247.735 139.313 246.414C137.67 242.013 137.779 237.557 139.532 233.211C140.025 232.055 140.627 230.405 141.996 230.625C143.037 230.79 144.242 231.945 144.735 232.991C145.502 234.586 146.05 236.401 146.269 238.162C146.816 242.563 146.269 246.854 144.735 251.035C144.626 251.255 144.571 251.476 144.516 251.696C144.571 251.696 144.571 251.806 144.626 252.191ZM143.092 247.514C143.256 247.459 143.475 247.404 143.64 247.294C144.79 243.113 144.845 238.987 143.256 234.861C143.092 234.421 142.435 234.146 142.051 233.761C141.723 234.146 141.284 234.531 141.12 234.971C140.134 238.327 140.079 241.683 141.394 244.929C141.777 245.919 142.544 246.689 143.092 247.514ZM135.588 260.333C135.752 260.443 135.862 260.553 136.026 260.663C137.286 259.178 138.491 257.692 139.751 256.207C136.136 256.152 134.986 257.032 135.588 260.333Z" fill="#21B364"/>
<path d="M8.40907 243.884C6.82069 243.499 5.12276 243.334 3.58916 242.673C0.248081 241.298 -0.902123 237.777 0.741028 234.586C2.65804 230.9 5.34185 227.874 8.79247 225.619C10.2713 224.629 11.9145 224.243 13.5028 225.399C14.9817 226.444 15.3103 228.039 15.0364 229.745C14.9817 230.185 14.7626 230.68 14.4887 231.065C13.9958 231.725 13.3933 232.606 12.5717 231.946C12.1883 231.67 12.3526 230.625 12.2979 229.965C12.2431 229.305 12.2431 228.645 12.2431 227.929C11.5311 227.984 10.6547 227.764 10.107 228.094C6.71115 230.13 4.24642 232.991 2.82235 236.677C2.00078 238.767 2.87712 240.253 5.01322 240.858C8.57338 241.848 11.9692 241.298 15.3103 239.703C15.858 239.427 16.6796 239.538 17.3369 239.482C17.0082 240.198 16.8439 241.188 16.2962 241.573C13.8862 243.058 11.2572 243.609 8.40907 243.884Z" fill="#21B364"/>
</svg>
