<svg width="46" height="61" viewBox="0 0 46 61" fill="none" xmlns="http://www.w3.org/2000/svg">
<path d="M22.8962 5.51732C23.1103 5.92223 23.2993 6.23857 23.463 6.56755C23.9292 7.4786 24.4582 8.35168 25.3905 8.84516C26.0833 9.21211 26.814 9.5411 27.5572 9.78151C28.7414 10.1738 29.9633 10.4648 31.1601 10.8317C32.634 11.2873 33.7426 12.1983 34.2087 13.6787C34.3976 14.2861 34.6748 14.3241 35.1661 14.3494C36.8668 14.4253 38.454 14.9061 39.8775 15.8425C41.2381 16.7409 42.2963 17.905 42.7624 19.5246C42.8631 19.8916 42.9891 20.2585 43.0899 20.6381C43.1403 20.8532 43.2411 20.9671 43.4804 20.9418C43.5686 20.9291 43.6568 20.9544 43.745 20.9671C44.5764 21.1442 44.7024 21.3214 44.7402 22.1692C44.778 22.8651 44.6142 23.4725 44.0095 23.8647C43.808 23.9912 43.5434 24.1051 43.3167 24.0925C43.0269 24.0798 42.9009 24.1937 42.775 24.4088C42.2837 25.206 41.805 26.0031 41.2633 26.775C40.6208 27.6987 39.7138 28.3187 38.769 28.9008C38.643 28.9767 38.5044 29.0526 38.3784 29.1412C38.0887 29.3183 38.0887 29.5967 38.3281 29.8371C38.9579 30.4698 39.613 31.0771 40.1673 31.7604C40.9861 32.7727 41.7168 33.8356 42.4852 34.8858C42.5482 34.9744 42.6112 35.0756 42.649 35.1642C42.7876 35.4679 42.7624 35.7842 42.5734 35.8854C42.334 36.0119 41.9183 35.8854 41.7672 35.6323C41.427 35.0756 41.0995 34.5188 40.7342 33.9748C40.1169 33.0764 39.487 32.1906 38.8571 31.3049C38.7816 31.191 38.6556 31.1151 38.5548 31.0265C38.517 31.0392 38.4918 31.0518 38.454 31.0645C38.454 31.229 38.4414 31.4061 38.454 31.5706C38.643 33.0258 38.8571 34.4682 39.0335 35.9234C39.2099 37.3659 39.4618 38.8083 39.2855 40.2635C39.2351 40.7317 39.0461 41.1872 38.8949 41.6427C38.8068 41.8958 38.5926 41.9717 38.3407 41.959C38.1769 41.9464 38.0131 41.9464 37.8494 41.9337C37.6352 41.9211 37.4714 42.0096 37.3832 42.2121C36.9549 43.2117 36.1487 43.6546 35.1157 43.7432C35.0779 43.7432 35.0401 43.7685 34.9645 43.8064C35.0527 43.8697 35.1157 43.9077 35.1661 43.9456C35.67 44.2366 35.733 44.6922 35.67 45.1983C35.6322 45.4514 35.6952 45.5652 35.9597 45.6538C36.5518 45.8436 36.8164 46.3624 36.7156 47.0583C36.6274 47.691 36.1361 48.2225 35.5818 48.2478C35.3299 48.2604 35.0779 48.2478 34.826 48.1971C34.574 48.1339 34.511 48.2098 34.4606 48.4502C34.3221 49.1208 33.9189 49.6017 33.3017 49.8674C32.7726 50.0951 32.2309 49.9307 31.8152 49.4625C31.7396 49.3866 31.664 49.298 31.601 49.2094C31.4624 48.9943 31.3239 48.9943 31.1223 49.1461C30.3665 49.7029 29.535 49.6902 28.9555 49.1335C28.3761 48.5767 28.3635 47.8049 28.9555 47.2481C29.0185 47.1849 29.0941 47.1216 29.1823 47.0457C28.502 46.5142 28.2123 45.8563 28.4642 45.0591C28.7414 44.1607 29.5098 44.2746 30.2279 44.3379C30.2783 43.9962 30.2279 43.7558 29.9633 43.528C29.7492 43.3382 29.6358 43.0346 29.4846 42.7688C29.4091 42.6423 29.3713 42.4905 29.3209 42.3639C29.2831 42.3639 29.2579 42.3639 29.2201 42.3639C29.1697 42.4778 29.0689 42.6044 29.0563 42.7182C28.9807 43.4268 28.565 43.8191 27.9226 44.0342C27.8344 44.0595 27.7462 44.1101 27.6706 44.1354C27.847 44.4391 28.0611 44.7048 28.1745 45.0211C28.439 45.7044 28.2501 46.3624 27.8344 46.9192C27.3935 47.5139 26.751 47.5898 26.0833 47.4506C25.7306 47.3747 25.4031 47.2481 25.0377 47.1343C25.0377 47.3114 25.0503 47.4506 25.0377 47.5898C24.9747 48.3996 24.3197 49.1461 23.5134 49.2853C22.8962 49.3992 22.2411 48.9943 21.901 48.2731C21.8128 48.0706 21.712 47.8808 21.6238 47.6784C21.4349 47.7796 21.2459 47.8935 21.0569 47.9694C20.2381 48.2984 19.4571 48.2478 18.7516 47.7037C18.1469 47.2228 18.1343 46.3751 18.7012 45.7044C18.8524 45.5273 18.9909 45.3501 19.1925 45.1097C18.9532 45.0591 18.7894 45.0211 18.6256 44.9958C18.1217 44.9326 17.6682 44.7428 17.2903 44.4138C16.8494 44.0342 16.7612 43.528 16.8116 42.9713C16.8242 42.8701 16.736 42.7562 16.6982 42.655C16.6226 42.7435 16.5092 42.8195 16.4715 42.9207C16.2825 43.5027 16.1061 44.0975 15.9172 44.6795C15.8416 44.9199 15.8794 45.0085 16.1439 44.9832C16.3455 44.9579 16.5596 44.9705 16.7738 44.9832C17.3281 45.0211 17.7438 45.3628 17.895 45.8942C18.1091 46.6155 17.9076 47.109 17.1895 47.4253C16.7864 47.6024 16.3329 47.653 15.8542 47.7669C15.8794 47.8555 15.9172 48.0073 15.955 48.1592C16.2069 49.1715 15.5014 49.8927 14.4937 49.6776C13.9646 49.5637 13.5992 49.2347 13.2465 48.8678C13.0575 48.6653 12.9568 48.6527 12.7552 48.8804C12.2891 49.4245 11.697 49.7662 10.9916 49.8927C10.1727 50.0445 9.70662 49.6017 9.84519 48.7792C9.92077 48.3237 10.1097 47.9188 10.4373 47.5898C10.538 47.4886 10.6136 47.3747 10.7522 47.2228C10.601 47.1849 10.5129 47.1596 10.4247 47.1343C10.1349 47.0457 9.83259 46.9824 9.54285 46.8685C8.87518 46.5902 8.74921 45.8689 9.32869 45.4261C10.1349 44.806 11.0545 44.6415 12.0371 45.0085C12.1505 45.0465 12.2639 45.1097 12.3773 45.1224C12.4907 45.135 12.6796 45.0971 12.6922 45.0465C12.7174 44.9199 12.6796 44.7807 12.6292 44.6542C12.5914 44.5656 12.5033 44.5024 12.4151 44.4517C11.9994 44.1481 11.9868 43.8823 12.1883 43.4142C12.2261 43.3256 12.2639 43.237 12.3143 43.0978C12.1631 43.0852 12.0623 43.0472 11.949 43.0599C11.823 43.0599 11.6844 43.0978 11.5584 43.1231C11.3443 43.1611 11.0671 43.1358 10.9286 43.2623C10.8152 43.3636 10.853 43.6419 10.8152 43.8444C10.7396 44.2366 10.5129 44.4897 10.1349 44.6162C9.66882 44.7807 9.22791 44.6922 8.87518 44.3632C8.61064 44.1101 8.37128 43.8064 8.18232 43.4901C7.94297 43.0978 7.65323 42.8701 7.17453 42.7942C6.3053 42.6423 5.43608 42.4146 4.57945 42.2121C4.35269 42.1615 4.12594 42.0476 3.91178 41.9464C3.43308 41.6933 3.3323 41.4782 3.44568 40.9468C3.8236 39.15 4.49127 37.4544 5.20932 35.7715C5.65023 34.734 6.05335 33.6964 6.46907 32.6462C6.50686 32.5449 6.51946 32.4437 6.56985 32.2412C6.36829 32.3551 6.22972 32.4057 6.12894 32.4943C5.09595 33.3421 4.06295 34.2025 3.02996 35.0503C2.80321 35.2401 2.57645 35.4425 2.3245 35.5817C2.11035 35.6956 1.8584 35.7462 1.60645 35.7968C1.50567 35.8095 1.37969 35.7209 1.26632 35.683C1.3293 35.5564 1.37969 35.3919 1.48047 35.316C1.88359 34.9744 2.31191 34.6707 2.71502 34.3291C3.57165 33.6078 4.42828 32.8866 5.28491 32.1653C5.8266 31.7225 6.36829 31.2796 6.93517 30.8494C7.22492 30.6216 7.43907 30.3685 7.53985 30.0143C7.56505 29.913 7.61544 29.8118 7.64063 29.6979C7.817 29.0146 7.817 29.0273 7.19972 28.673C5.65023 27.7999 4.42828 26.5852 3.72282 24.9276C3.54646 24.4974 3.45827 24.0292 3.37009 23.561C3.29451 23.1561 3.24412 23.0929 2.841 23.0549C1.87099 22.979 1.25372 22.2957 1.07735 21.2961C0.913587 20.4103 1.08995 19.5626 1.74502 18.8793C2.09775 18.5123 2.52606 18.2846 3.02996 18.196C3.3197 18.1454 3.62204 18.0948 3.91178 18.0821C4.21412 18.0695 4.25191 17.9556 4.12594 17.7152C3.97477 17.4368 3.8362 17.1458 3.68503 16.8674C3.19373 15.9817 3.29451 15.1972 4.03776 14.5139C4.844 13.7926 5.75101 13.2485 6.85959 13.1347C7.17453 13.0967 7.51466 13.1347 7.8296 13.1979C8.22012 13.2738 8.49726 13.6914 8.53505 14.1343C8.56025 14.3367 8.57285 14.5518 8.58544 14.7543C8.62324 15.1339 8.71142 15.1845 9.07674 15.0959C9.58064 14.9694 10.0971 14.8429 10.601 14.7037C10.727 14.6657 10.8908 14.5265 10.9034 14.4253C11.2183 12.4261 12.6166 11.3758 14.3047 10.6672C15.8668 10.0093 17.4918 9.49048 19.0791 8.89578C19.52 8.73128 19.9735 8.59209 20.4019 8.40229C21.3845 7.99739 21.8254 7.17492 22.0143 6.18795C22.0395 6.06142 22.0647 5.92223 22.1025 5.7957C22.1907 5.46671 22.3041 5.15038 21.8506 4.97323C21.775 4.94792 21.712 4.82139 21.6742 4.73282C21.6364 4.60628 21.5734 4.45444 21.6112 4.35322C21.6364 4.28995 21.8506 4.23934 21.9514 4.26464C22.2285 4.32791 22.3167 4.18872 22.3293 3.96096C22.3293 3.923 22.3293 3.89769 22.3293 3.85973C22.3545 3.29033 22.3545 3.30299 21.7876 3.27768C21.3845 3.25237 20.9813 3.20176 20.5782 3.12584C20.4397 3.10053 20.2885 3.02461 20.1751 2.92339C19.9736 2.72093 20.0239 2.48052 20.3137 2.44256C20.6916 2.4046 21.0695 2.44256 21.4475 2.45521C21.5482 2.45521 21.649 2.48052 21.7372 2.49317C22.2537 2.55644 22.3923 2.4299 22.2789 1.92377C22.2537 1.80989 22.1025 1.70866 21.9891 1.64539C21.838 1.56947 21.649 1.55682 21.5104 1.45559C21.4223 1.39233 21.3845 1.22783 21.3845 1.11395C21.3845 1.06334 21.5356 1.00007 21.6364 0.962113C21.6994 0.936806 21.7876 0.924152 21.8632 0.924152C22.2285 0.936806 22.3797 0.759659 22.3671 0.405364C22.3671 0.24087 22.3419 -0.0121966 22.5812 0.000456806C22.7198 0.0131102 22.9717 0.190257 22.9717 0.304137C23.0221 0.835578 23.3119 0.962113 23.778 0.94946C23.9921 0.936806 24.1181 1.11395 24.0677 1.30375C24.0299 1.43029 23.8788 1.53151 23.7528 1.60743C23.6772 1.64539 23.5638 1.62009 23.463 1.62009C23.1103 1.62009 22.9843 1.74662 22.9717 2.11357C22.9591 2.35398 23.0473 2.46786 23.2993 2.45521C23.7528 2.4299 24.1937 2.41725 24.6472 2.4046C25.1007 2.39194 25.2897 2.51848 25.2897 2.79685C25.2897 3.03727 25.0125 3.23972 24.6472 3.23972C24.2189 3.23972 23.7906 3.23972 23.3623 3.22707C23.1481 3.22707 23.0599 3.30299 23.0473 3.5434C23.0473 3.83443 22.9843 4.13811 22.9592 4.42914C22.934 4.72016 23.0599 4.88466 23.3497 4.93527C23.5008 4.96058 23.6772 4.97323 23.778 5.0618C23.8788 5.15038 23.9543 5.32753 23.9669 5.46671C23.9669 5.51733 23.7654 5.64386 23.652 5.64386C23.463 5.61855 23.2237 5.55528 22.8962 5.51732ZM21.5104 18.3478C21.8758 18.4491 22.1781 18.5376 22.4804 18.6262C23.1355 18.8287 23.4504 19.2083 23.4882 19.8536C23.526 20.6508 23.4504 21.4479 23.1859 22.1945C23.0977 22.4349 22.9088 22.7006 22.6946 22.8145C22.3167 23.0296 21.8884 23.1688 21.4726 23.2827C21.2081 23.3459 21.0695 23.4598 21.0191 23.7129C20.868 24.6366 20.5026 25.4843 20.0869 26.3195C19.4193 27.6607 18.5626 28.8122 17.1265 29.4069C16.7738 29.5587 16.7738 29.6853 17.1013 29.9383C17.9706 30.6216 18.8272 31.2922 19.709 31.9629C20.4523 32.5323 21.2081 33.1017 21.9765 33.6711C22.0647 33.7343 22.1907 33.747 22.3041 33.785C22.3293 33.6711 22.3797 33.5572 22.3797 33.4433C22.4049 32.7347 22.3923 32.0261 22.4301 31.3302C22.4678 30.6343 22.493 30.6343 21.8002 30.5077C21.0947 30.3812 20.7042 29.7612 20.9939 29.1791C21.1325 28.9008 21.0695 28.7489 20.8806 28.5465C20.7168 28.3693 20.553 28.1416 20.5026 27.9138C20.4019 27.4203 20.6916 27.0154 21.2207 26.9015C21.4978 26.8383 21.649 26.7623 21.5734 26.4207C21.5356 26.2562 21.6112 26.0411 21.712 25.8893C22.0899 25.2819 23.0725 25.1174 23.7528 25.4843C23.9292 25.5856 24.1937 25.6235 24.3953 25.5729C25.2141 25.3705 25.7558 25.7754 25.7684 26.6231C25.7684 26.7497 25.844 26.9268 25.9447 26.9901C26.4864 27.395 26.562 28.1289 26.0455 28.5844C25.8692 28.7489 25.8314 28.8881 25.8944 29.1285C26.0959 29.7991 25.6298 30.3939 24.9369 30.4192C24.8236 30.4192 24.6598 30.4824 24.622 30.5583C24.3071 31.0898 23.8788 31.3429 23.2489 31.2416C23.1607 31.229 22.9843 31.3555 22.9843 31.4188C22.9717 32.1906 22.9592 32.9625 23.0221 33.7217C23.0599 34.2152 23.1481 34.2025 23.5764 33.9115C25.1763 32.8233 26.751 31.7098 28.3887 30.6849C28.9681 30.3306 29.409 30.0142 29.4594 29.293C29.472 29.0399 29.472 28.8754 29.2201 28.7236C28.2375 28.1162 27.4061 27.3317 26.8014 26.3321C26.3731 25.5982 25.9573 24.8643 25.592 24.1051C25.4031 23.7255 25.1511 23.561 24.7354 23.4978C24.4834 23.4598 24.1811 23.2953 24.0299 23.0929C23.652 22.612 23.5512 22.03 23.715 21.4353C23.8536 20.9165 24.2567 20.5875 24.7732 20.6128C25.1259 20.6255 25.2267 20.4863 25.2645 20.1699C25.4912 18.4111 26.4109 17.0445 27.8092 16.007C29.2957 14.9061 30.9963 14.362 32.823 14.1849C33.2135 14.1469 33.2639 14.0837 33.1505 13.6914C32.9615 13.0334 32.5584 12.5399 32.0167 12.1477C31.0719 11.4518 29.9381 11.2366 28.8422 10.933C27.6454 10.604 26.4235 10.3889 25.3401 9.7309C24.3701 9.14884 23.4882 8.47821 23.0095 7.39002C22.9591 7.26349 22.808 7.18757 22.7072 7.08634C22.6316 7.20022 22.5182 7.30145 22.493 7.42798C22.3797 7.88351 22.1403 8.27576 21.7498 8.51618C21.2459 8.8072 20.7294 9.08558 20.1877 9.27538C18.7012 9.81947 17.1895 10.2876 15.7156 10.8444C14.544 11.2873 13.4985 11.9452 12.6544 12.8942C12.2513 13.3371 11.949 13.8432 11.9364 14.5392C13.0701 14.438 14.1661 14.5392 15.2243 14.8302C16.2825 15.1212 17.3155 15.5135 18.3737 15.8678C18.3863 15.7919 18.4115 15.6906 18.4241 15.6021C18.5122 14.8302 18.8776 14.438 19.6334 14.3494C20.7168 14.2228 21.6112 14.6531 22.3419 15.4249C22.6316 15.7412 22.8206 16.1462 22.5308 16.6017C22.4804 16.6903 22.4553 16.8041 22.4301 16.918C22.3797 17.3356 22.1403 17.6519 21.8506 17.9303C21.7246 18.0695 21.6364 18.196 21.5104 18.3478ZM42.3592 21.9541C42.397 19.6132 41.4522 17.9303 39.8775 16.5637C39.6886 16.3992 39.5374 16.3486 39.361 16.6143C39.2099 16.8294 39.0335 16.7535 38.9075 16.5764C38.8446 16.4751 38.832 16.3486 38.769 16.2474C38.6808 16.1082 38.5674 15.9943 38.4666 15.8678C38.391 15.9817 38.3281 16.1082 38.2399 16.2094C38.1391 16.336 38.0383 16.4498 37.9249 16.5764C37.799 16.4498 37.6352 16.336 37.547 16.1841C37.484 16.0576 37.5092 15.8804 37.484 15.7286C37.4336 15.4629 37.2321 15.349 36.9045 15.3743C36.6526 15.3996 36.7282 15.6021 36.6904 15.7539C36.6274 16.0323 36.577 16.3107 36.4762 16.5764C36.451 16.6523 36.2999 16.6903 36.1991 16.7535C36.1487 16.6649 36.0605 16.589 36.0479 16.5005C36.0101 16.2347 36.0227 15.969 35.9723 15.7159C35.9345 15.5388 35.859 15.349 35.733 15.2225C35.6574 15.1339 35.4558 15.0959 35.3551 15.1339C35.2795 15.1592 35.2669 15.3616 35.2543 15.4882C35.2291 15.7033 35.2417 15.931 35.1787 16.1335C35.1535 16.2347 34.9645 16.3613 34.9015 16.3486C34.8008 16.3107 34.7 16.1715 34.6622 16.0449C34.6118 15.8551 34.6244 15.6527 34.5992 15.4502C34.574 15.1718 34.3851 15.1339 34.1583 15.1465C33.9063 15.1592 33.9441 15.3363 33.9441 15.5008C33.9441 15.6274 33.9441 15.7412 33.9315 15.8678C33.9189 16.1208 33.8434 16.3486 33.541 16.336C33.2513 16.3107 33.2387 16.0576 33.2261 15.8298C33.2135 15.64 33.2261 15.4502 33.1883 15.2731C33.1379 15.0074 32.9489 14.9567 32.5458 15.0327C32.2813 15.0833 32.2309 15.2225 32.2939 15.4502C32.3317 15.6147 32.3946 15.7919 32.3946 15.9564C32.3946 16.0576 32.3065 16.1462 32.2687 16.2474C32.1553 16.1715 32.0041 16.1335 31.9411 16.0323C31.8656 15.8931 31.853 15.7159 31.8152 15.5514C31.7774 15.349 31.7144 15.1845 31.4624 15.2225C31.2357 15.2478 31.0971 15.349 31.0971 15.6021C31.0971 15.8172 31.1097 16.0196 31.0971 16.2347C31.0845 16.336 30.9963 16.4372 30.9459 16.5384C30.8578 16.4751 30.7192 16.4372 30.6688 16.3486C30.5932 16.1968 30.5554 16.0196 30.5176 15.8551C30.442 15.5514 30.2657 15.4502 30.0011 15.64C29.9129 15.7033 29.8626 15.8298 29.85 15.9437C29.7618 16.3739 29.7114 16.3992 29.3587 16.1588C29.2831 16.1082 29.1445 16.0829 29.0689 16.1082C27.6328 16.7662 26.5872 17.8164 26.0833 19.3222C25.4912 21.081 25.655 22.8271 26.3605 24.5227C26.9651 25.9778 27.847 27.2179 29.1823 28.0909C30.2909 28.8248 31.5128 29.1918 32.8608 29.293C34.7756 29.4195 36.6022 29.255 38.3281 28.3693C39.4744 27.7873 40.4444 26.9774 41.1499 25.9019C41.9939 24.6239 42.3844 23.2447 42.3592 21.9541ZM11.1679 42.3892C12.7678 42.2754 14.0401 42.2248 15.3251 42.0856C16.1691 41.997 17.0131 41.7945 17.8446 41.6174C18.3359 41.5035 18.5374 41.2631 18.487 40.7696C18.3863 39.7447 18.3107 38.7071 18.0965 37.6948C17.7564 36.0373 17.3407 34.3923 16.8998 32.76C16.673 31.9123 16.3581 31.0898 16.0809 30.2547C15.9802 29.951 15.8164 29.8245 15.4637 29.9004C14.796 30.0269 14.1283 30.1534 13.4481 30.1787C11.949 30.242 10.4373 30.3179 9.02635 29.6093C8.83739 29.5081 8.67362 29.5461 8.57285 29.7738C8.35869 30.242 8.10674 30.6975 7.90518 31.1784C7.09894 33.1143 6.26751 35.0503 5.51166 36.9989C5.08335 38.1124 4.76841 39.2765 4.44088 40.428C4.26451 41.048 4.40308 41.339 5.00776 41.5668C5.49906 41.7439 6.01556 41.9211 6.53206 41.9843C8.16973 42.1488 9.81999 42.2754 11.1679 42.3892ZM3.98737 22.7765C3.96217 22.7765 3.93698 22.7892 3.91178 22.7892C4.02516 23.3459 4.05035 23.928 4.25191 24.4594C4.68023 25.5856 5.44867 26.4966 6.35569 27.2432C6.96037 27.7493 7.70362 28.1036 8.39648 28.4958C9.73181 29.255 11.2057 29.4955 12.7048 29.4955C13.6496 29.4955 14.607 29.3436 15.5518 29.1918C16.5596 29.0273 17.4793 28.6097 18.1217 27.7873C18.6004 27.1799 18.9783 26.484 19.3815 25.826C20.3263 24.2823 20.553 22.6247 20.2129 20.8659C20.1247 20.3977 20.0995 20.3977 19.6082 20.3724C18.1091 20.2965 16.6352 20.1193 15.3251 19.2842C14.3803 18.6768 13.4229 18.0948 12.7552 17.1584C12.541 16.8547 12.3521 16.8801 12.1757 17.2343C11.9238 17.7531 11.5584 18.1707 11.0545 18.4491C10.5632 18.7274 10.0593 18.9932 9.54285 19.2589C9.16493 19.4487 9.15233 19.5879 9.50506 19.8283C9.66882 19.9422 9.84519 20.0307 9.99636 20.1446C10.1475 20.2585 10.3491 20.3977 10.1727 20.6255C10.009 20.8279 9.8074 20.8912 9.58064 20.7014C9.21532 20.3977 8.787 20.2585 8.3209 20.2079C8.01856 20.1826 7.71622 20.0434 7.41388 19.9675C7.3257 19.9422 7.22492 19.9169 7.12414 19.9169C6.38089 20.0054 5.63764 20.0814 4.90698 20.2079C4.75581 20.2332 4.57945 20.385 4.49127 20.5242C4.06295 21.2328 3.96217 21.992 3.98737 22.7765ZM21.8884 42.4399C21.8884 41.959 21.8506 41.5668 21.8884 41.1872C22.0521 39.6182 23.3119 38.9602 24.6598 39.2259C24.9747 39.2892 25.2645 39.441 25.3401 39.77C25.4283 40.099 25.466 40.4533 25.4912 40.7949C25.5038 41.0353 25.5668 41.1366 25.8314 41.0733C26.1589 40.9974 26.499 40.9594 26.8392 40.9215C27.4564 40.8455 27.4942 41.01 27.4942 40.2508C27.4942 40.1749 27.5068 40.099 27.5194 40.0231C27.7462 38.7198 27.9855 37.4291 28.1997 36.1258C28.4138 34.8099 28.6028 33.4939 28.8044 32.178C28.8422 31.9376 28.88 31.6845 28.9303 31.4061C28.817 31.4441 28.754 31.4567 28.7036 31.482C28.2249 31.7351 27.7462 31.9755 27.2801 32.2412C26.0203 32.9878 24.7984 33.7723 23.6898 34.734C23.3623 35.0123 23.2993 35.3287 23.3245 35.7336C23.3623 36.303 23.3623 36.885 23.3245 37.4544C23.3119 37.6948 23.1733 37.9353 23.0347 38.1377C22.9591 38.2389 22.7324 38.2769 22.5938 38.2516C22.5182 38.2389 22.4301 38.0238 22.4301 37.91C22.4175 37.6569 22.4678 37.4038 22.4804 37.1508C22.5056 36.6193 22.5434 36.0752 22.5434 35.5438C22.5434 35.2148 22.3797 34.9744 22.0899 34.7972C21.6742 34.5568 21.2711 34.2911 20.8806 34.0001C20.0365 33.3547 19.2051 32.6841 18.3737 32.0261C18.0839 31.7984 17.7816 31.6086 17.4793 31.3935C17.4541 31.4188 17.4289 31.4314 17.4037 31.4567C17.4163 31.558 17.4289 31.6718 17.4415 31.7731C17.706 32.9245 17.9706 34.0633 18.2225 35.2148C18.6382 37.1128 19.0539 38.9981 19.4571 40.8961C19.5074 41.1366 19.6334 41.2251 19.8602 41.2504C20.5656 41.3264 21.1199 41.6807 21.5734 42.1994C21.6616 42.2374 21.7498 42.3133 21.8884 42.4399ZM34.4228 36.7205C34.6874 36.7205 34.9519 36.7585 35.2165 36.7205C36.0983 36.5814 36.9801 36.4422 37.862 36.265C38.1643 36.2017 38.3281 35.9993 38.2525 35.6577C38.2147 35.4552 38.1769 35.2527 38.1517 35.0376C37.9753 33.4939 37.8116 31.9502 37.6352 30.4192C37.5344 29.4828 37.4336 29.4195 36.5266 29.5967C34.637 29.9636 32.7474 29.9383 30.8704 29.5081C30.3287 29.3816 30.2279 29.4069 30.1271 29.951C29.7744 31.7731 29.4216 33.6078 29.0815 35.4299C28.9933 35.8728 29.1319 36.0499 29.5602 36.1764C31.1601 36.6193 32.7852 36.7585 34.4228 36.7205ZM38.5044 38.5553C38.4792 38.5553 38.4666 38.5553 38.4414 38.5553C38.4414 38.2136 38.4414 37.872 38.4414 37.5304C38.4414 37.1508 38.3533 37.0748 37.9879 37.1508C37.9123 37.1634 37.8368 37.1761 37.7612 37.2014C36.2495 37.5936 34.7 37.6695 33.1505 37.505C31.9033 37.3659 30.6688 37.1128 29.4216 36.923C29.2705 36.8977 29.0563 36.9483 28.9681 37.0495C28.8422 37.2014 28.7666 37.4165 28.7288 37.6189C28.5902 38.6439 28.4642 39.6688 28.3509 40.6937C28.2879 41.2631 28.4139 41.4276 28.9807 41.4402C29.9759 41.4529 30.9711 41.4529 31.9789 41.4402C32.4576 41.4402 32.4828 41.3643 32.5962 40.8961C32.7348 40.3521 32.8985 39.7953 33.1127 39.2765C33.3143 38.8083 33.8182 38.7957 34.0323 39.2639C34.2087 39.6308 34.2969 40.0484 34.385 40.4533C34.448 40.7696 34.5866 40.9974 34.9267 41.01C35.8338 41.048 36.7408 41.0859 37.6478 41.0606C38.0887 41.048 38.2651 40.8455 38.3281 40.39C38.4162 39.7827 38.454 39.1753 38.5044 38.5553ZM19.5704 44.3505C19.8098 44.3126 19.9987 44.2999 20.1751 44.2493C20.3641 44.1987 20.6034 44.1481 20.7042 44.0215C20.9058 43.7432 21.0443 43.4142 21.1955 43.0978C21.2207 43.0599 21.2081 42.984 21.1829 42.9333C20.9562 42.579 20.7294 42.1868 20.3011 42.0982C19.4571 41.9211 18.6382 42.0476 17.9076 42.5284C17.5044 42.7942 17.4163 43.3129 17.7438 43.6799C17.9076 43.8697 18.1343 44.0468 18.3737 44.1228C18.7642 44.2366 19.2051 44.2746 19.5704 44.3505ZM26.8896 41.7819C25.7684 41.8705 24.9244 42.3133 24.2567 43.0599C24.1685 43.1611 24.1433 43.3762 24.1937 43.5027C24.2315 43.604 24.4079 43.6799 24.5464 43.7305C24.6598 43.7811 24.7858 43.7558 24.8992 43.8064C25.7936 44.2113 27.4187 43.3762 27.9226 42.5411C28.0485 42.326 28.0359 42.1235 27.7714 42.035C27.4438 41.9337 27.1163 41.8578 26.8896 41.7819ZM24.559 44.5403C24.3197 44.5024 24.1307 44.6036 24.0299 44.882C23.9292 45.1603 24.1559 45.2236 24.2945 45.3375C24.4456 45.464 24.5968 45.5906 24.748 45.7171C25.1889 46.084 25.655 46.413 26.2471 46.4889C26.9777 46.5775 27.5194 45.9701 27.1919 45.3628C27.0533 45.1097 26.7132 44.8946 26.4235 44.8187C25.8314 44.6669 25.2141 44.6289 24.559 44.5403ZM22.6064 41.706C22.619 41.7692 22.6316 41.9211 22.6694 42.0729C22.7828 42.617 23.2111 42.7942 23.6394 42.4652C24.2063 42.0223 24.5842 41.4656 24.6472 40.719C24.6976 40.0863 24.3449 39.8206 23.7402 40.0231C23.1103 40.2382 22.619 40.9341 22.6064 41.706ZM7.08634 14.0583C7.19972 14.2355 7.2879 14.3873 7.38868 14.5265C7.60284 14.7922 7.59024 15.058 7.38868 15.311C7.26271 15.4629 7.12414 15.6147 6.97297 15.7286C6.64543 15.9817 6.25491 16.007 5.99037 15.8298C5.57465 15.5514 5.39829 15.1339 5.49906 14.7037C5.52426 14.5771 5.53686 14.438 5.56205 14.2861C5.03296 14.3494 4.8062 14.5392 4.93218 14.8682C5.17153 15.4755 4.93218 15.9311 4.54166 16.3613C4.27711 16.6523 4.3275 17.0066 4.66763 17.2723C4.71802 17.1584 4.76841 17.0572 4.8314 16.9433C5.02036 16.589 5.3227 16.3613 5.68803 16.2853C5.86439 16.2474 6.07855 16.4119 6.28011 16.4372C6.41868 16.4625 6.60764 16.4372 6.72102 16.3739C7.01076 16.2094 7.2879 16.007 7.55245 15.8045C7.67842 15.7033 7.87999 15.5894 7.89258 15.4755C7.91778 15.1212 7.93037 14.7416 7.84219 14.4C7.76661 14.0204 7.60284 13.9698 7.08634 14.0583ZM21.523 45.7044C21.5356 45.2489 21.0947 44.9199 20.7042 45.1477C20.3011 45.3754 19.9232 45.6791 19.583 45.9828C19.3311 46.2106 19.2807 46.6661 19.4445 46.9318C19.6334 47.2355 19.9358 47.2734 20.2507 47.2228C20.9813 47.1216 21.5104 46.5016 21.523 45.7044ZM22.4049 46.6914C22.3293 47.3241 22.5434 47.8175 23.1355 48.1086C23.5764 48.3237 23.9292 48.1339 24.0173 47.653C24.1307 46.9824 23.9166 46.3877 23.5134 45.8689C23.3497 45.6538 23.1103 45.5652 22.8332 45.6538C22.5686 45.7297 22.4678 45.9448 22.4301 46.1979C22.4049 46.3624 22.4049 46.5269 22.4049 46.6914ZM13.0827 15.7286C13.0953 17.5254 17.2777 19.8536 18.9909 19.4107C15.0227 18.0315 15.2873 17.8923 13.0827 15.7286ZM11.4829 16.627C11.4577 16.6017 11.4451 16.589 11.4199 16.5637C11.3191 16.627 11.2183 16.6903 11.1301 16.7662C9.50506 18.0695 7.71622 19.0058 5.58725 19.107C5.44867 19.1197 5.3227 19.1956 5.19672 19.2462C5.20932 19.2842 5.20932 19.3095 5.22192 19.3475C5.2975 19.3601 5.38569 19.3981 5.46127 19.3854C5.88959 19.3601 6.3179 19.3601 6.73361 19.2968C7.98076 19.0944 9.17752 18.7654 10.2357 18.0442C10.7648 17.6772 11.2183 17.2343 11.4829 16.627ZM33.541 40.9847C33.4906 40.9974 33.4528 40.9974 33.4024 41.01C33.3899 41.1998 33.3647 41.3896 33.3773 41.5794C33.415 42.1235 33.0875 42.5031 32.508 42.3892C32.3821 42.3639 32.2561 42.4019 32.0293 42.4146C32.1427 42.5158 32.1805 42.5537 32.2057 42.5664C32.7978 42.6676 33.1379 43.0472 33.3521 43.5787C33.3773 43.6546 33.4654 43.7432 33.541 43.7432C33.9063 43.7558 34.2717 43.7558 34.6622 43.7558C34.1961 43.3256 34.1583 43.1738 34.2591 42.5411C34.2843 42.4146 34.2339 42.1868 34.1457 42.1362C33.8937 41.997 33.793 41.8072 33.73 41.5415C33.6922 41.339 33.604 41.1619 33.541 40.9847ZM19.9735 17.5886C19.9987 17.4368 19.9987 17.3735 20.0113 17.3103C20.0743 16.9813 20.1121 16.627 20.4774 16.4625C20.8176 16.298 21.1073 16.4119 21.4097 16.5637C21.4978 16.6017 21.586 16.627 21.6742 16.6523C21.6994 16.5511 21.7498 16.4498 21.7372 16.3486C21.6994 15.9943 21.2459 15.5135 20.8932 15.4755C20.7924 15.4629 20.6412 15.5261 20.5908 15.6021C20.4019 15.969 20.0869 16.0449 19.7342 16.0449C19.5326 16.0449 19.3185 15.9943 19.1295 15.9437C18.928 15.8931 18.8272 15.9564 18.8524 16.1715C18.865 16.2853 18.8776 16.4372 18.9532 16.5131C19.2681 16.8547 19.5956 17.1964 19.9735 17.5886ZM32.634 44.3758C32.5584 44.1101 32.4954 43.8444 32.3821 43.5913C32.2435 43.2623 32.0419 43.237 31.8152 43.5154C31.601 43.7811 31.3617 43.9456 31.0341 44.0215C30.9459 44.0468 30.82 44.1607 30.8074 44.2493C30.7066 44.8693 31.3239 45.3628 31.9033 45.1224C31.9789 45.0971 32.0419 45.0591 32.1175 45.0465C32.5332 45.0085 32.5962 44.7301 32.634 44.3758ZM12.5284 47.6404C12.5284 47.1722 12.2891 46.9192 12.012 47.071C11.4829 47.362 11.0168 47.7543 10.7648 48.3237C10.7018 48.4629 10.7144 48.7412 10.8026 48.8172C10.916 48.9184 11.2183 48.9563 11.3317 48.8804C11.7222 48.5894 12.0623 48.2478 12.4151 47.9061C12.4781 47.8428 12.5033 47.7037 12.5284 47.6404ZM22.5812 43.3636C22.5182 43.3762 22.3923 43.3762 22.2789 43.4142C21.8758 43.528 21.6112 43.9836 21.712 44.3758C21.7876 44.6922 22.1403 44.882 22.556 44.8187C22.6568 44.806 22.745 44.7681 22.8458 44.7428C23.2363 44.6162 23.4379 44.3252 23.3875 43.9836C23.3371 43.6166 23.0221 43.3636 22.5812 43.3636ZM15.6904 46.9445C16.0557 46.8306 16.3959 46.7547 16.7234 46.6281C16.988 46.5142 17.1517 46.2991 17.0383 45.9955C16.9376 45.7171 16.6604 45.7044 16.4211 45.7424C15.9802 45.831 15.5518 45.9448 15.1109 46.0587C14.7708 46.1346 14.67 46.4383 14.9472 46.6534C15.1487 46.8053 15.4385 46.8432 15.6904 46.9445ZM29.5728 48.1212C29.5728 48.4882 29.724 48.6653 30.0515 48.64C30.4924 48.6147 31.0719 48.1465 31.2105 47.729C31.3113 47.4253 31.1979 47.2102 30.8956 47.1216C30.3161 46.9571 29.5728 47.5265 29.5728 48.1212ZM15.2243 48.3363C15.1613 47.5265 14.5692 47.1849 13.826 47.5139C13.5488 47.6404 13.4859 47.7922 13.6874 48.02C13.9142 48.2857 14.1787 48.5261 14.4559 48.7159C14.5818 48.8045 14.8338 48.8298 14.9598 48.7665C15.0857 48.7159 15.1361 48.4882 15.2243 48.3363ZM11.0671 45.4767C10.8404 45.5273 10.5255 45.5526 10.2231 45.6665C10.0593 45.7297 9.94597 45.9069 9.81999 46.0461C9.97116 46.1726 10.1223 46.2991 10.2735 46.413C10.2861 46.4257 10.3113 46.4257 10.3365 46.4257C10.916 46.5649 11.3695 46.2359 11.8482 46.0208C11.9112 45.9955 11.9616 45.831 11.949 45.7297C11.9364 45.6665 11.823 45.5905 11.7348 45.5652C11.5584 45.5273 11.3569 45.5146 11.0671 45.4767ZM35.2165 46.2485C35.2165 46.2359 35.2039 46.2232 35.2039 46.2106C34.8638 46.3118 34.511 46.413 34.1709 46.5142C33.9441 46.5775 33.9567 46.704 34.0575 46.8812C34.448 47.653 35.4558 47.3241 35.7456 46.8685C35.9345 46.5649 35.8212 46.3244 35.481 46.2738C35.3928 46.2612 35.3047 46.2612 35.2165 46.2485ZM9.99636 16.6143C9.98376 16.5764 9.95856 16.5511 9.94597 16.5131C9.53025 16.7156 9.12713 16.918 8.71142 17.1078C8.08154 17.3988 7.45167 17.6772 6.74621 17.6772C6.43128 17.6772 6.17933 17.9303 6.10374 18.3099C7.60284 18.1834 8.84999 17.5001 9.99636 16.6143ZM30.2027 46.3498C30.3161 46.3371 30.4294 46.3498 30.5302 46.3118C30.6562 46.2485 30.82 46.1726 30.8578 46.0587C30.8956 45.9575 30.8074 45.7803 30.7318 45.6791C30.5806 45.4893 30.4168 45.2995 30.2279 45.173C30.0893 45.0718 29.85 44.9958 29.7114 45.0465C29.5728 45.0971 29.4216 45.3248 29.409 45.4767C29.3587 45.8942 29.6106 46.3877 30.2027 46.3498ZM32.7474 48.7792C33.2639 48.7792 33.5662 48.4755 33.5788 47.9567C33.5788 47.6277 33.415 47.4886 33.1001 47.5518C32.9237 47.5898 32.7348 47.6404 32.5584 47.6784C32.3065 47.7416 32.0671 47.8302 32.1175 48.1718C32.1427 48.5135 32.4324 48.7792 32.7474 48.7792ZM13.3095 44.7934C13.3221 44.8567 13.3221 44.9199 13.3347 44.9832C13.6496 45.0844 13.9646 45.1856 14.2795 45.2616C14.3425 45.2742 14.4433 45.211 14.5063 45.1603C14.8968 44.806 15.1991 44.4011 15.3125 43.8697C15.3377 43.7558 15.3125 43.6293 15.3125 43.4142C14.6826 44.0468 14.1157 44.6036 13.3095 44.7934ZM1.79541 20.6508C2.17333 20.4103 2.43788 20.1193 2.71502 20.094C2.97957 20.0814 3.25671 20.3471 3.55905 20.5116C3.8362 19.9422 4.13854 19.3348 4.42828 18.7274C4.44088 18.6895 4.37789 18.563 4.3275 18.5503C4.26451 18.5376 4.13854 18.563 4.11334 18.6136C4.06295 18.7021 4.08815 18.8287 4.06295 18.9299C3.98737 19.145 3.94958 19.4107 3.79841 19.5752C3.39529 20.0054 2.841 20.0181 2.37489 19.6511C2.23632 19.5373 2.05996 19.4487 1.97177 19.6764C1.88359 19.9548 1.8584 20.2712 1.79541 20.6508ZM23.526 26.6105C23.526 26.2942 23.3623 26.117 23.0851 26.0284C22.7828 25.9399 22.5308 26.0411 22.3671 26.2942C22.2033 26.5346 22.3167 26.775 22.5056 26.9774C22.5812 27.0534 22.6568 27.1419 22.745 27.2052C23.0095 27.4077 23.2741 27.357 23.4127 27.0534C23.4756 26.9268 23.5008 26.7623 23.526 26.6105ZM21.1199 19.0185C20.9688 19.1197 20.6664 19.2462 20.679 19.3222C20.7546 19.7524 20.8806 20.1952 21.0569 20.6001C21.0947 20.6761 21.4223 20.6254 21.6238 20.6381C21.6112 20.5242 21.5986 20.3977 21.586 20.2838C21.5608 20.0181 21.4852 19.7397 21.4978 19.474C21.523 19.107 21.5356 19.0817 21.1199 19.0185ZM19.2933 18.3858C19.1925 18.3478 19.1295 18.3225 19.0665 18.2972C18.4241 18.0821 17.769 17.905 17.1517 17.6266C16.1943 17.209 15.2747 16.7282 14.6826 15.7919C14.607 15.6653 14.4055 15.6147 14.1913 15.5008C14.4055 16.6017 18.2099 18.7021 19.2933 18.3858ZM33.8308 45.793C34.1079 45.6665 34.3095 45.6032 34.4858 45.4893C34.7 45.3501 34.7882 45.0971 34.6622 44.882C34.5866 44.7428 34.3725 44.6415 34.1961 44.5909C33.8937 44.515 33.7174 44.7428 33.5536 44.9452C33.4528 45.0718 33.3017 45.2869 33.3521 45.3501C33.4654 45.5399 33.667 45.6538 33.8308 45.793ZM32.3443 45.793C32.0293 45.793 31.7774 45.9828 31.8026 46.2359C31.853 46.6534 31.9915 46.9318 32.3191 46.9192C32.6592 46.9065 32.9615 46.6787 32.9615 46.4383C32.9615 46.122 32.6466 45.793 32.3443 45.793ZM23.4127 30.7608C23.8536 30.7608 24.1181 30.5837 24.1307 30.3179C24.1307 30.1028 23.715 29.6093 23.526 29.6093C23.2867 29.6093 23.0977 29.9763 23.0977 30.4445C23.0977 30.6975 23.2489 30.7481 23.4127 30.7608ZM14.2669 43.1231C13.8638 43.0472 13.4607 42.984 13.1205 43.1864C12.982 43.275 12.8812 43.5787 12.9064 43.7685C12.9316 44.0342 13.2087 43.9962 13.3851 43.9203C13.7756 43.7938 14.0149 43.4648 14.2669 43.1231ZM35.1283 42.984C35.6322 42.8321 36.0353 42.6676 36.3125 42.3007C36.4006 42.1868 36.4258 42.0223 36.2243 41.959C35.8086 41.8325 35.1031 42.2248 35.0149 42.6423C35.0023 42.7435 35.0905 42.8574 35.1283 42.984ZM13.3347 46.7673C13.6622 46.7673 13.9142 46.5649 13.9142 46.3118C13.9016 46.0461 13.637 45.831 13.2843 45.831C12.982 45.831 12.8056 46.0081 12.8056 46.3244C12.8056 46.5902 13.0197 46.7673 13.3347 46.7673ZM1.78281 21.0557C1.70723 21.7389 2.12294 22.2324 2.76541 22.283C2.90399 22.2957 3.13074 22.2704 3.18113 22.1945C3.26931 22.03 3.26931 21.8022 3.3071 21.6124C3.28191 21.5871 3.25672 21.5618 3.23152 21.5238C2.52606 22.1185 2.13554 21.7136 1.78281 21.0557ZM43.1907 22.5361C43.1907 22.6247 43.1781 22.7133 43.1781 22.8018C43.1781 23.0802 43.3418 23.2067 43.5434 23.0169C43.7324 22.8271 43.8835 22.5741 43.9717 22.321C44.0473 22.1059 43.7828 21.8908 43.5182 21.8781C43.2411 21.8655 43.2285 22.0426 43.2159 22.2451C43.1907 22.3463 43.1907 22.4475 43.1907 22.5361ZM25.0629 21.3467C24.5968 21.4479 24.3575 21.9414 24.496 22.4475C24.5464 22.6626 24.685 22.7639 24.874 22.7006C24.9873 22.6626 25.1385 22.4982 25.1511 22.3716C25.1511 22.0426 25.1007 21.701 25.0629 21.3467ZM25.1259 29.3816C25.0629 29.0146 24.8866 28.8628 24.4331 28.7869C24.1559 28.7363 24.0047 28.9261 24.1181 29.1791C24.1937 29.331 24.2945 29.4955 24.4331 29.5967C24.559 29.6853 24.748 29.7738 24.8866 29.7485C24.9747 29.7232 25.0377 29.5081 25.1259 29.3816ZM30.6814 42.2121C30.5428 42.3133 30.3287 42.3892 30.2783 42.5284C30.2027 42.7435 30.5554 43.1358 30.7696 43.1358C30.9837 43.1358 31.1853 42.908 31.1853 42.6676C31.1853 42.3639 30.9963 42.2754 30.6814 42.2121ZM21.8758 28.3693C22.0521 28.2807 22.2663 28.1922 22.4553 28.0656C22.493 28.0403 22.4553 27.7999 22.4301 27.7999C22.1403 27.7493 21.8506 27.724 21.5608 27.7113C21.4852 27.7113 21.3467 27.8379 21.3467 27.9011C21.3467 28.015 21.3971 28.1542 21.4852 28.2301C21.5482 28.3187 21.6868 28.3187 21.8758 28.3693ZM22.8206 29.0526C22.7828 29.0273 22.7198 28.9767 22.6568 28.964C22.4049 28.9387 21.8002 29.3183 21.7372 29.5714C21.712 29.66 21.8128 29.8498 21.8884 29.8751C22.1151 29.951 22.8206 29.3563 22.8206 29.0526ZM6.85959 14.7416C6.84699 14.5392 6.73361 14.4253 6.48167 14.438C6.16673 14.4506 6.04075 14.5898 6.04075 14.8808C6.04075 15.1465 6.19192 15.2604 6.43128 15.2731C6.65803 15.2857 6.87219 15.0327 6.85959 14.7416ZM21.1451 17.4495C21.1955 17.3862 21.3719 17.2723 21.3845 17.1458C21.3971 16.9054 21.1955 16.7662 20.9436 16.7662C20.742 16.7662 20.5656 16.8294 20.553 17.0572C20.5278 17.2597 20.7672 17.4495 21.1451 17.4495ZM9.11454 43.0346C9.08934 43.0852 9.06415 43.1358 9.03895 43.1738C9.19012 43.3129 9.3161 43.4774 9.49246 43.5913C9.59324 43.6672 9.7696 43.7052 9.87038 43.6672C9.94597 43.6419 10.009 43.4268 9.98376 43.3382C9.94597 43.2117 9.8074 43.0725 9.69402 43.0346C9.50506 42.9966 9.3035 43.0346 9.11454 43.0346ZM23.9795 27.9771C23.7906 27.8252 23.6394 27.6481 23.5764 27.6734C23.4379 27.7366 23.2615 27.8885 23.2363 28.0277C23.2237 28.1416 23.4001 28.2807 23.5008 28.4073C23.6394 28.2934 23.778 28.1669 23.9795 27.9771ZM24.6598 27.9011C24.6598 27.9644 24.6724 28.0277 24.6724 28.0909C24.8992 28.1289 25.1259 28.1922 25.3527 28.1795C25.4409 28.1795 25.5164 27.9897 25.592 27.8885C25.5038 27.8252 25.3905 27.6987 25.3149 27.7113C25.0881 27.7366 24.874 27.8252 24.6598 27.9011ZM22.5938 20.0054C22.5434 19.7018 22.5434 19.436 22.2411 19.4107C22.1781 19.4107 22.0143 19.6005 22.0395 19.6385C22.1403 19.8283 22.2789 20.0054 22.3923 20.1826C22.4678 20.1193 22.5434 20.0434 22.5938 20.0054ZM16.4085 16.0196C16.3833 16.0576 16.3707 16.0955 16.3455 16.1335C16.9124 16.4372 17.4793 16.7282 18.0587 17.0319C18.0839 16.9813 18.1091 16.9307 18.1343 16.8674C17.5548 16.589 16.9754 16.298 16.4085 16.0196ZM24.4708 27.1166C24.5212 27.1293 24.5716 27.1419 24.622 27.1546C24.7228 26.9774 24.8614 26.813 24.9244 26.6231C24.9495 26.5472 24.8362 26.3827 24.748 26.3321C24.6976 26.3068 24.496 26.408 24.4834 26.484C24.4456 26.6864 24.4708 26.9015 24.4708 27.1166ZM19.7342 14.9694C19.583 15.0959 19.4948 15.1845 19.4067 15.2604C19.5452 15.349 19.6586 15.4882 19.8098 15.5261C19.8854 15.5388 20.0113 15.387 20.1121 15.311C19.9987 15.1972 19.8854 15.0959 19.7342 14.9694ZM5.99037 16.9813C5.49906 16.8294 5.22192 17.1078 5.36049 17.5633C5.58725 17.3482 5.78881 17.1584 5.99037 16.9813ZM2.8158 18.9299C2.91658 19.1703 3.05516 19.3475 3.29451 19.1956C3.38269 19.145 3.44568 18.8666 3.40788 18.816C3.19373 18.6262 3.00477 18.7781 2.8158 18.9299ZM9.01376 16.2221C9.00116 16.1841 8.97596 16.1588 8.96337 16.1208C8.57285 16.2853 8.08154 16.2347 7.87998 16.7915C8.25791 16.6143 8.63583 16.4119 9.01376 16.2221ZM20.0491 17.8164C20.1121 18.0062 20.1373 18.1201 20.1877 18.2087C20.2381 18.2846 20.3641 18.3985 20.4145 18.3732C20.5152 18.3225 20.6034 18.2087 20.6916 18.1201C20.616 18.0568 20.5404 17.9809 20.4523 17.9303C20.3515 17.905 20.2381 17.8797 20.0491 17.8164ZM21.1073 21.5871C21.2207 21.7389 21.2963 21.8528 21.3593 21.9541C21.4475 21.8402 21.5734 21.7389 21.5986 21.6124C21.6112 21.5365 21.4726 21.41 21.3719 21.372C21.3215 21.3593 21.2207 21.4859 21.1073 21.5871ZM4.45347 15.311C4.40308 15.2857 4.3527 15.2731 4.30231 15.2478C4.12594 15.4123 4.02516 15.5894 4.07555 15.8298C4.11334 15.8425 4.15114 15.8678 4.20153 15.8804C4.28971 15.6906 4.37789 15.5008 4.45347 15.311Z" fill="#61CC92"/>
<path d="M29.7115 18.5882C31.2484 18.449 32.5081 19.4739 33.138 21.005C33.4529 21.7642 33.5915 22.536 33.5915 23.3585C33.5915 23.6116 33.6797 23.8773 33.7931 24.105C33.9191 24.3581 33.8435 24.4214 33.6041 24.434C33.1002 24.4593 32.7223 24.1177 32.7097 23.5989C32.7097 23.4977 32.7097 23.3965 32.7223 23.3079C32.9742 22.207 32.5207 21.2327 32.042 20.3217C31.6137 19.4992 30.7193 19.1955 29.8123 19.3727C29.4344 19.4486 29.0564 19.5119 28.6785 19.5372C28.5273 19.5498 28.3636 19.398 28.2124 19.3221C28.3006 19.1829 28.351 18.9804 28.4644 18.9298C28.8549 18.7653 29.2706 18.6514 29.6863 18.5249C29.6863 18.5249 29.6989 18.5629 29.7115 18.5882Z" fill="#61CC92"/>
<path d="M33.4149 27.256C32.2056 27.2813 31.4245 26.6739 30.7946 25.8008C30.6561 25.611 30.5175 25.3959 30.4167 25.1808C30.3663 25.0669 30.3663 24.8392 30.4293 24.7759C30.5175 24.7 30.7191 24.7 30.845 24.7506C30.971 24.7886 31.0844 24.9151 31.1726 25.0163C31.5505 25.4718 31.9662 25.9021 32.5079 26.1678C33.4401 26.6233 35.0778 26.598 36.073 25.611C36.2619 25.4212 36.4509 25.2441 36.6147 25.0416C36.8162 24.8012 37.0556 24.738 37.2319 24.8771C37.4209 25.029 37.4209 25.4465 37.2445 25.6363C36.6021 26.3449 34.3975 27.256 33.4149 27.256Z" fill="#61CC92"/>
<path d="M37.2951 18.5376C37.8872 18.6768 38.5801 18.7401 39.1344 19.1703C39.3611 19.3474 39.5123 19.6384 39.6635 19.9042C39.6886 19.9421 39.5375 20.1572 39.4871 20.1572C39.2603 20.1446 39.0336 20.1066 38.8194 20.018C38.5297 19.9042 38.2525 19.727 37.9754 19.5878C37.3077 19.2588 36.7282 19.4107 36.1866 19.8662C36.0858 19.9548 35.985 20.0433 35.8842 20.1193C35.7079 20.2458 35.5441 20.2458 35.3803 20.1066C35.204 19.9548 35.2291 19.7776 35.3299 19.6005C35.7708 18.8919 36.4259 18.5882 37.2951 18.5376Z" fill="#61CC92"/>
<path d="M30.7447 21.0178C30.7321 21.3974 30.5053 21.6125 30.1022 21.5998C29.6613 21.5872 29.2582 21.157 29.2708 20.7014C29.2834 20.3725 29.5983 20.1067 29.9763 20.132C30.455 20.1447 30.7699 20.5116 30.7447 21.0178Z" fill="#61CC92"/>
<path d="M37.7615 21.0176C37.7489 21.4225 37.4717 21.7642 37.1568 21.7515C36.8041 21.7262 36.3632 21.258 36.3758 20.8911C36.3883 20.5241 36.7159 20.2837 37.182 20.2964C37.5347 20.309 37.7741 20.6001 37.7615 21.0176Z" fill="#61CC92"/>
<path d="M14.6954 19.6509C15.023 19.7015 15.3505 19.7521 15.6654 19.8154C15.7914 19.8407 15.93 19.904 16.0056 19.9926C16.0685 20.0685 16.1189 20.2077 16.0937 20.3089C16.0811 20.3722 15.9174 20.4354 15.8292 20.4354C15.678 20.4354 15.5269 20.3722 15.3883 20.3342C13.2719 19.866 12.2389 21.9918 12.7932 23.4722C12.8184 23.5482 12.8562 23.6367 12.8814 23.7253C13.0955 24.5098 12.642 25.0413 11.8484 24.94C11.6972 24.9274 11.5083 24.7629 11.4579 24.6237C11.3697 24.3959 11.5461 24.3074 11.7476 24.2441C12.1129 24.1302 12.1759 23.9657 12.0374 23.5229C11.7854 22.751 11.8232 22.0044 12.1381 21.2706C12.5413 20.2962 13.6498 19.613 14.6954 19.6509Z" fill="#61CC92"/>
<path d="M12.0876 27.572C11.2562 27.5467 10.7271 27.2556 10.2735 26.8128C9.89563 26.4458 9.58069 26.0283 9.24056 25.6233C9.11458 25.4715 8.91302 25.2311 9.13978 25.0919C9.29095 25.0033 9.63108 25.0413 9.79485 25.1552C10.1854 25.4462 10.5003 25.8131 10.8656 26.1295C11.2184 26.4458 11.5963 26.7242 12.1128 26.7368C12.7049 26.7622 13.045 26.3699 13.3851 25.9776C13.5237 25.8131 13.6245 25.6107 13.7756 25.4462C13.8764 25.3323 14.0276 25.2184 14.1788 25.1931C14.3047 25.1678 14.4937 25.2437 14.5819 25.3323C14.6323 25.3956 14.5945 25.6107 14.5315 25.7119C14.1284 26.3446 13.6749 26.9393 12.9694 27.2809C12.6167 27.4328 12.2639 27.5087 12.0876 27.572Z" fill="#61CC92"/>
<path d="M9.31619 21.7011C9.31619 22.1313 9.07683 22.3844 8.66112 22.3971C8.20761 22.3971 7.65332 22.0048 7.65332 21.6758C7.66592 21.2583 8.11943 20.8534 8.57294 20.8534C9.01385 20.8407 9.32878 21.195 9.31619 21.7011Z" fill="#61CC92"/>
<path d="M14.7834 21.0308C15.2621 21.0308 15.4888 21.2459 15.4888 21.6887C15.4888 22.1316 15.1991 22.4732 14.8212 22.4732C14.4306 22.4732 14.0023 21.9798 14.0149 21.5369C14.0275 21.2206 14.3299 21.0308 14.7834 21.0308Z" fill="#61CC92"/>
<path d="M28.5652 54.3972C28.5275 54.6376 28.5526 54.916 28.4519 55.1311C28.2251 55.6245 27.9606 56.118 27.6582 56.5736C27.4567 56.8899 27.1669 57.2189 26.7512 57.1176C26.3733 57.0164 26.3733 56.5862 26.3103 56.2572C26.2977 56.2066 26.2851 56.156 26.2599 56.0168C26.0961 56.3458 25.9576 56.6115 25.819 56.8646C25.7308 57.0291 25.63 57.1936 25.5167 57.3454C25.2773 57.6491 25.0128 57.6238 24.8742 57.2695C24.786 57.0417 24.7734 56.7887 24.6978 56.4597C24.5718 56.7254 24.4837 56.9278 24.3577 57.1176C24.1813 57.396 24.005 57.6744 23.7656 57.9022C23.4507 58.2058 23.0224 58.092 22.9216 57.6617C22.8208 57.1809 22.8208 56.6874 22.783 56.194C22.783 56.1433 22.783 56.0927 22.783 56.0168C22.5437 56.1054 22.3043 56.1813 22.1027 56.2952C22.0146 56.3458 21.9264 56.485 21.9264 56.5989C21.9012 56.9025 21.9264 57.2189 21.9138 57.5226C21.9138 57.7377 21.9138 57.9401 21.8634 58.1426C21.8382 58.2438 21.7374 58.3197 21.6618 58.4083C21.5737 58.3197 21.4477 58.2565 21.4099 58.1552C21.3595 58.016 21.3469 57.8515 21.3469 57.6997C21.3469 57.396 21.3847 57.105 21.3721 56.8013C21.3721 56.5736 21.3091 56.3584 21.2839 56.1307C21.2461 56.1307 21.2083 56.118 21.1831 56.118C21.1201 56.2193 21.0824 56.3331 21.0068 56.4344C20.7422 56.8266 20.5155 57.2442 20.2005 57.5858C19.9108 57.9022 19.5455 57.8136 19.3565 57.4213C19.2809 57.2568 19.2305 57.067 19.1927 56.8899C19.1549 56.7254 19.1297 56.5482 19.092 56.2952C18.903 56.6368 18.777 56.9152 18.6258 57.1683C18.4999 57.3707 18.3739 57.5858 18.2101 57.763C17.87 58.1679 17.5047 58.1046 17.3913 57.5858C17.3031 57.1556 17.3409 56.6874 17.3283 56.2446C17.3283 56.1686 17.3409 56.0801 17.3535 55.9662C17.0386 56.3331 16.7488 56.6621 16.4591 56.9785C16.4087 57.0417 16.3457 57.0797 16.2827 57.1303C15.6151 57.6617 14.9348 57.4466 14.708 56.6368C14.645 56.4091 14.6325 56.156 14.5317 55.8776C14.3931 56.1307 14.2293 56.3837 14.1286 56.6621C14.0278 56.9152 14.0026 57.1936 13.927 57.4593C13.8892 57.5605 13.7884 57.6491 13.7128 57.7377C13.6498 57.6364 13.5239 57.5352 13.5239 57.434C13.5239 57.0164 13.5617 56.5989 13.5869 56.1813C13.5995 56.0041 13.5995 55.8397 13.5491 55.6372C13.4357 55.8143 13.3223 55.9915 13.2089 56.1686C12.9192 56.6368 12.6421 57.1176 12.3523 57.5732C12.3019 57.6491 12.2011 57.687 12.1256 57.7377C12.0626 57.6491 11.9492 57.5605 11.9492 57.4846C11.9744 57.2568 12.0248 57.0291 12.113 56.8266C12.4153 56.2193 12.5665 55.5866 12.4909 54.9033C12.4783 54.7894 12.4531 54.6629 12.4153 54.549C12.2893 54.258 12.1256 54.2327 11.8862 54.4478C11.8106 54.511 11.7098 54.549 11.6343 54.587C11.5965 54.4731 11.5335 54.3592 11.5461 54.258C11.5587 53.9416 11.8358 53.6253 12.113 53.562C12.4405 53.4988 12.6924 53.6127 12.8184 54.0049C12.957 54.4351 13.0074 54.8906 13.0956 55.3968C13.3097 54.9539 13.5365 54.5237 13.738 54.0935C13.7758 54.0302 13.7632 53.929 13.801 53.8784C13.864 53.8025 13.9522 53.7518 14.0278 53.6886C14.0782 53.7772 14.1915 53.8657 14.1915 53.9416C14.1663 54.3719 14.116 54.8021 14.0782 55.2196C14.0656 55.3335 14.053 55.4474 14.0404 55.5613C14.0656 55.5739 14.1034 55.5866 14.1286 55.5992C14.3931 55.1943 14.645 54.7768 14.9222 54.3719C15.0482 54.1821 15.1615 53.9796 15.3253 53.8151C15.678 53.4482 16.0056 53.5114 16.1567 53.9923C16.2323 54.2453 16.2323 54.5237 16.2323 54.8021C16.2323 54.8653 16.119 54.9413 16.056 55.0045C16.0056 54.9413 15.93 54.8906 15.8922 54.8147C15.804 54.6882 15.741 54.549 15.6654 54.4098C15.5395 54.549 15.3757 54.6755 15.2875 54.8274C15.0356 55.2956 15.0608 55.7764 15.2119 56.2699C15.3001 56.5482 15.5017 56.6874 15.7662 56.5609C16.0308 56.447 16.3205 56.3078 16.4969 56.1054C16.8748 55.6878 17.1897 55.2323 17.5047 54.7641C17.618 54.587 17.6306 54.3466 17.7314 54.1441C17.7818 54.0429 17.8952 53.967 17.9834 53.891C18.0464 53.9923 18.1723 54.1061 18.1849 54.2074C18.1849 54.4478 18.1345 54.6882 18.0968 54.9286C18.0212 55.4601 17.933 55.9915 17.8574 56.5229C17.8322 56.6748 17.87 56.8266 17.87 56.9658C17.8952 56.9785 17.933 57.0038 17.9582 57.0164C18.0716 56.8899 18.2101 56.7633 18.2983 56.6242C18.7518 55.9409 19.1171 55.2196 19.3313 54.4225C19.3691 54.2833 19.5203 54.1694 19.621 54.0555C19.6714 54.2074 19.7722 54.3719 19.7596 54.5237C19.7092 55.1184 19.6084 55.7005 19.5833 56.2952C19.5707 56.5103 19.747 56.7254 19.8226 56.9278C19.999 56.8013 20.2383 56.7254 20.3517 56.5482C20.6162 56.1686 20.8178 55.7511 21.0572 55.3588C21.3091 54.9413 21.4981 54.511 21.4603 54.0049C21.4477 53.9163 21.4729 53.8151 21.5107 53.7518C21.5611 53.6633 21.6492 53.6 21.7122 53.5241C21.7752 53.6 21.8634 53.6633 21.876 53.7518C21.9138 53.9037 21.9264 54.0555 21.9264 54.2074C21.9138 54.4604 21.8634 54.7135 21.876 54.9666C21.876 55.1437 21.7374 55.3968 22.0146 55.4727C22.2791 55.5486 22.7452 55.2956 22.7956 55.0551C22.8586 54.7388 22.8586 54.3972 22.9216 54.0808C22.9594 53.9037 23.0728 53.6127 23.1483 53.6127C23.4381 53.6127 23.4129 53.891 23.4003 54.0935C23.3625 54.7262 23.2743 55.3715 23.2365 56.0041C23.2239 56.3331 23.2365 56.6621 23.2995 56.9911C23.3499 57.2821 23.5515 57.3454 23.7278 57.105C23.9546 56.814 24.1561 56.4976 24.3199 56.156C24.66 55.4474 24.9498 54.7008 25.3025 53.9923C25.4537 53.6886 25.6804 53.3976 25.9198 53.1571C26.1087 52.9673 26.2851 53.0559 26.4615 53.2837C26.7134 53.6253 26.726 53.967 26.6882 54.3719C26.6504 54.8906 26.663 55.4094 26.6882 55.9156C26.7008 56.0548 26.8268 56.1939 26.8898 56.3331C27.0158 56.2572 27.1921 56.2193 27.2677 56.118C27.5826 55.6752 27.8724 55.207 28.1747 54.7515C28.2503 54.6502 28.3007 54.5364 28.3637 54.4225C28.4771 54.3719 28.5275 54.3845 28.5652 54.3972ZM26.3355 53.7645C25.7182 53.8784 25.0128 55.9915 25.3403 56.7127C25.9576 55.8143 26.3103 54.8653 26.3355 53.7645Z" fill="#61CC92"/>
<path d="M12.0626 54.7645C12.05 54.8911 12.0878 55.0303 12.0374 55.1315C11.6721 55.8148 11.3067 56.5107 10.891 57.1687C10.6769 57.5103 10.3745 57.8393 9.89582 57.7128C9.41712 57.5863 9.29114 57.1813 9.20296 56.7511C9.17777 56.6626 9.16517 56.5613 9.13997 56.4601C9.08958 56.4728 9.05179 56.4728 9.0266 56.4854C8.48491 56.865 8.19516 56.7511 8.08179 56.1058C7.9936 55.625 7.95581 55.1315 7.82984 54.6254C7.70386 54.9417 7.57789 55.258 7.43932 55.5744C7.31334 55.8527 7.19996 56.1438 7.06139 56.4095C7.011 56.4981 6.87243 56.5993 6.78425 56.5866C6.69607 56.574 6.55749 56.4475 6.54489 56.3589C6.48191 55.9919 6.45671 55.6123 6.43152 55.2454C6.41892 54.9923 6.43152 54.7266 6.43152 54.4735C6.38113 54.4609 6.34334 54.4609 6.29295 54.4482C6.14178 54.7519 5.99061 55.0429 5.85203 55.3466C5.70086 55.6756 5.57489 56.0172 5.41112 56.3462C5.36073 56.4601 5.19697 56.5993 5.12138 56.5866C5.0206 56.574 4.88203 56.4221 4.85684 56.3083C4.79385 56.0805 4.78125 55.8274 4.78125 55.587C4.80644 55.0176 4.85683 54.4482 4.90722 53.8662C4.90722 53.8029 4.90723 53.7143 4.94502 53.6764C5.0332 53.5751 5.13398 53.4992 5.23476 53.4106C5.29775 53.5119 5.43632 53.6131 5.42372 53.7143C5.39853 54.1698 5.33554 54.638 5.28515 55.0935C5.27255 55.1821 5.25996 55.2707 5.31035 55.3846C5.36073 55.296 5.41112 55.1948 5.44892 55.1062C5.61268 54.7519 5.77645 54.3849 5.96541 54.0307C6.07879 53.8155 6.22996 53.5878 6.5197 53.6511C6.80944 53.7143 6.84723 54.0054 6.85983 54.2331C6.88503 54.6254 6.87243 55.0176 6.87243 55.4225C6.91022 55.4352 6.93542 55.4478 6.97321 55.4478C7.0236 55.3593 7.07399 55.258 7.12438 55.1695C7.30074 54.7899 7.43932 54.3976 7.64088 54.0307C7.71646 53.8915 7.90542 53.727 8.04399 53.727C8.29594 53.727 8.37153 53.9927 8.39672 54.2205C8.42192 54.5747 8.43452 54.929 8.44711 55.2833C8.44711 55.3466 8.44711 55.4225 8.47231 55.4731C8.54789 55.6376 8.62348 55.8021 8.69906 55.9666C8.87543 55.8021 9.10218 55.6503 9.20296 55.4478C9.34153 55.1315 9.35413 54.7646 9.4801 54.4356C9.58088 54.1698 9.73205 53.9168 9.92102 53.7143C10.2108 53.3727 10.5383 53.4613 10.6895 53.8788C10.8532 54.3343 10.765 54.7899 10.5635 55.1948C10.3745 55.5997 10.11 55.9666 9.83283 56.3209C9.66907 56.536 9.64387 56.7005 9.82024 56.903C10.0092 57.1181 10.236 57.1054 10.3871 56.9156C10.8028 56.3842 11.1934 55.8274 11.5839 55.2707C11.7099 55.0935 11.8232 54.9037 11.9492 54.7266C11.9744 54.7266 12.0248 54.7392 12.0626 54.7645ZM9.63127 55.7515C9.94621 55.4605 10.2737 54.8152 10.2737 54.5115C10.2737 54.4229 10.1856 54.3217 10.1478 54.2331C10.0848 54.3343 9.9966 54.4356 9.97141 54.5494C9.89582 54.8278 9.85803 55.1062 9.78244 55.3846C9.75725 55.4858 9.70686 55.5744 9.63127 55.7515Z" fill="#61CC92"/>
<path d="M38.643 50.4878C38.7815 50.8547 38.5926 51.0699 38.3658 51.2343C38.1517 51.3988 37.8997 51.5127 37.6478 51.6646C37.6982 51.7405 37.7233 51.8037 37.7737 51.8417C38.9705 52.7148 38.9831 54.752 38.4162 55.7769C38.3154 55.954 38.1643 56.1185 38.0131 56.2451C37.7108 56.4981 37.4336 56.4349 37.2824 56.0553C37.1439 55.701 37.0935 55.3214 37.0053 54.9418C36.9801 54.8406 36.9801 54.7267 36.9801 54.6634C36.6652 54.7267 36.388 54.7773 36.1487 54.8279C36.0353 55.2455 35.9471 55.6757 35.7959 56.0932C35.6574 56.4855 35.3676 56.7765 34.9645 56.941C34.7377 57.0296 34.5488 57.0043 34.4102 56.8018C34.2842 56.612 34.1457 56.3969 34.1079 56.1818C33.9567 55.1442 34.1331 54.1699 34.6874 53.2715C34.7629 53.1577 34.8763 53.0438 34.9897 52.9805C35.292 52.7907 35.607 52.8919 35.7581 53.2083C35.8337 53.3728 35.8589 53.5626 35.9471 53.7018C36.0605 53.8662 36.2242 54.094 36.388 54.1193C36.577 54.1446 36.8163 53.9928 36.9675 53.8536C37.1061 53.7144 37.1691 53.4866 37.2572 53.2968C37.3706 53.0311 37.5218 52.7907 37.9249 52.7654C37.7359 52.5756 37.5848 52.4111 37.4336 52.2593C36.9801 51.8037 37.0557 51.247 37.61 50.956C37.9501 50.8168 38.2902 50.6649 38.643 50.4878ZM35.1913 53.6005C35.1031 53.7271 35.0023 53.8409 34.9519 53.9801C34.7 54.5622 34.5614 55.1695 34.637 55.8022C34.6496 55.9414 34.7629 56.0806 34.8259 56.2198C34.9897 56.1438 35.1913 56.1059 35.292 55.9794C35.6196 55.5871 35.7078 55.0936 35.7204 54.5875C35.7204 54.5242 35.7078 54.4483 35.67 54.3977C35.5314 54.1573 35.3676 53.9042 35.1913 53.6005ZM37.7359 55.7516C38.2902 55.372 38.4918 53.8156 38.0761 53.2209C37.5344 53.4613 37.295 55.1189 37.7359 55.7516Z" fill="#61CC92"/>
<path d="M43.8709 53.132C43.7072 53.4104 43.5686 53.7014 43.3922 53.9545C43.2537 54.1696 43.1403 54.4733 42.8128 54.3974C42.4726 54.3088 42.523 53.9798 42.4852 53.7014C42.4726 53.5749 42.4852 53.4484 42.4096 53.2965C41.9309 53.828 41.4522 54.3594 40.9735 54.9035C40.8098 55.0806 40.6838 55.3464 40.394 55.1313C40.2051 54.9921 40.2555 54.7137 40.5452 54.4859C41.0995 54.0557 41.2507 53.4863 41.2129 52.8283C41.2003 52.7271 41.1121 52.6259 41.0617 52.5247C40.9735 52.5879 40.8476 52.6385 40.7846 52.7398C40.2681 53.5622 39.9531 54.4353 40.0413 55.4223C40.0791 55.8778 40.1295 56.3207 40.1673 56.7762C40.2051 57.1938 40.0791 57.4721 39.8649 57.4468C39.4996 57.3962 39.5878 57.0799 39.5752 56.8395C39.4996 55.65 39.424 54.4606 39.361 53.2712C39.3485 53.1194 39.3485 52.9549 39.3862 52.8157C39.4114 52.7145 39.5374 52.5626 39.5878 52.5753C39.6886 52.6006 39.8272 52.7018 39.8649 52.803C39.9279 52.9802 39.9279 53.1826 39.9531 53.3977C40.1295 53.0181 40.2807 52.6512 40.4696 52.3096C40.6334 52.0312 40.8476 51.7655 41.2255 51.8287C41.5026 51.8667 41.7294 52.2463 41.7546 52.6638C41.7672 52.7904 41.7546 52.9296 41.742 53.0561C41.7294 53.1826 41.679 53.3092 41.6286 53.5116C41.742 53.4231 41.805 53.3977 41.8428 53.3471C42.2459 52.8157 42.649 52.2842 43.0521 51.7528C43.1781 51.5883 43.3041 51.4112 43.4678 51.2973C43.5938 51.2087 43.8332 51.1454 43.9339 51.2087C44.1229 51.3099 44.337 51.4365 44.2993 51.7655C44.2615 52.1071 44.2741 52.4741 44.3119 52.8157C44.3496 53.1573 44.5386 53.2206 44.778 52.9675C45.1181 52.6006 45.4078 52.2083 45.7102 51.8161C45.7732 51.7402 45.8361 51.6516 45.8991 51.563C45.9369 51.5757 45.9747 51.5883 45.9999 51.601C45.9747 51.7275 45.9873 51.8793 45.9243 51.9679C45.6346 52.4108 45.37 52.8663 45.0173 53.2586C44.5134 53.8533 44.2363 53.8153 43.8709 53.132ZM43.8206 51.6389C43.1907 51.9932 43.0899 52.6385 42.9387 53.2333C42.9009 53.3977 42.9387 53.6002 42.9387 53.7773C42.9765 53.7773 43.0143 53.7773 43.0521 53.7773C43.5056 53.132 43.8583 52.4614 43.8206 51.6389Z" fill="#61CC92"/>
<path d="M33.2638 58.0038C33.6417 57.9025 34.007 57.8013 34.3598 57.7127C34.5361 57.6621 34.7377 57.5989 34.7881 57.8519C34.8385 58.067 34.6495 58.1176 34.4857 58.1683C34.1204 58.2695 33.7677 58.396 33.4024 58.4593C32.9363 58.5352 32.7095 58.8389 32.4702 59.2058C32.2056 59.5981 31.8907 59.9777 31.5379 60.294C31.1978 60.6104 30.8073 60.4585 30.6813 59.9903C30.5049 59.383 30.8955 58.6744 31.4876 58.5099C31.7017 58.4466 31.9159 58.396 32.1174 58.3454C32.4576 58.2695 32.6339 58.0291 32.7221 57.7127C32.7473 57.6495 32.6717 57.5482 32.6213 57.485C32.4324 57.2193 32.1552 56.9788 32.0418 56.6752C31.6639 55.6629 31.6891 54.638 32.0922 53.6384C32.2056 53.3726 32.3442 52.993 32.6591 53.0436C32.8985 53.0816 33.1756 53.3473 33.289 53.5877C33.4654 53.9547 33.5913 54.3723 33.6417 54.7772C33.7677 55.7894 33.6417 56.7764 33.289 57.738C33.2638 57.7887 33.2512 57.8393 33.2386 57.8899C33.2512 57.8899 33.2512 57.9152 33.2638 58.0038ZM32.9111 56.9282C32.9489 56.9156 32.9992 56.9029 33.037 56.8776C33.3016 55.916 33.3142 54.967 32.9489 54.018C32.9111 53.9167 32.7599 53.8535 32.6717 53.7649C32.5961 53.8535 32.4953 53.942 32.4576 54.0433C32.2308 54.8151 32.2182 55.587 32.5205 56.3335C32.6087 56.5613 32.7851 56.7384 32.9111 56.9282ZM31.1852 59.8765C31.223 59.9018 31.2482 59.9271 31.286 59.9524C31.5757 59.6107 31.8529 59.2691 32.1426 58.9275C31.3112 58.9148 31.0466 59.1173 31.1852 59.8765Z" fill="#61CC92"/>
<path d="M1.93408 56.0931C1.56875 56.0045 1.17823 55.9666 0.825504 55.8147C0.0570586 55.4984 -0.207488 54.6886 0.170436 53.9547C0.611347 53.1069 1.22862 52.411 2.02226 51.8922C2.36239 51.6644 2.74032 51.5759 3.10565 51.8416C3.44578 52.082 3.52136 52.4489 3.45837 52.8412C3.44578 52.9424 3.39539 53.0563 3.3324 53.1449C3.21902 53.2967 3.08045 53.4992 2.89149 53.3473C2.80331 53.2841 2.8411 53.0436 2.8285 52.8918C2.8159 52.74 2.8159 52.5881 2.8159 52.4236C2.65214 52.4363 2.45058 52.3857 2.3246 52.4616C1.54356 52.9298 0.976673 53.5877 0.649139 54.4355C0.460177 54.9163 0.661737 55.258 1.15304 55.3972C1.97187 55.6249 2.75292 55.4984 3.52136 55.1315C3.64734 55.0682 3.8363 55.0935 3.98747 55.0808C3.91188 55.2453 3.87409 55.4731 3.74812 55.5617C3.19383 55.9033 2.58915 56.0298 1.93408 56.0931Z" fill="#61CC92"/>
</svg>
